<?xml version="1.0" encoding="UTF-8"?>
<svg version="1.1"
	xmlns="http://www.w3.org/2000/svg" width="680" height="170">
	<path d="M0 0 C0 0.66 0 1.32 0 2 C0.5775 2.2475 1.155 2.495 1.75 2.75 C4.32939979 4.18299988 6.06121592 5.78424676 8 8 C8 8.66 8 9.32 8 10 C8.66 10 9.32 10 10 10 C10.79550392 11.39365 11.58621838 12.79003431 12.375 14.1875 C12.81585938 14.96480469 13.25671875 15.74210937 13.7109375 16.54296875 C18.31484952 25.31830409 19.00505659 36.5356143 16.41699219 46.17041016 C13.36955175 54.32988148 7.99841504 63.44761785 0.0625 67.5 C-0.618125 67.665 -1.29875 67.83 -2 68 C-2 68.66 -2 69.32 -2 70 C-12.12726983 75.7634869 -22.57679492 76.51637589 -34 75 C-39.58627794 73.4573933 -44.19832922 71.20111385 -49 68 C-49 67.34 -49 66.68 -49 66 C-49.598125 65.731875 -50.19625 65.46375 -50.8125 65.1875 C-52.99847854 64.00082594 -54.41332594 62.90400887 -56 61 C-56 60.34 -56 59.68 -56 59 C-56.66 59 -57.32 59 -58 59 C-59.21875 57.49609375 -59.21875 57.49609375 -60.5 55.4375 C-60.9228125 54.77621094 -61.345625 54.11492187 -61.78125 53.43359375 C-66.61596985 43.77964996 -66.80250776 30.22900632 -63.5 20 C-61.06046263 14.3399223 -57.3554618 9.3460344 -53 5 C-52.34 5 -51.68 5 -51 5 C-51 4.34 -51 3.68 -51 3 C-48.4385343 0.70351351 -47.52032428 0 -44 0 C-44 -0.66 -44 -1.32 -44 -2 C-29.43903953 -8.83473655 -14.08881551 -6.86121985 0 0 Z M-43 26 C-45.41078751 31.00702022 -46.05683043 35.85235909 -44.27734375 41.15234375 C-41.82582293 46.48216836 -38.82492028 49.35212984 -33.75 52.3125 C-27.46406285 53.88398429 -21.03003979 51.92448078 -15 50 C-14.34 50.66 -13.68 51.32 -13 52 C-10.525 51.505 -10.525 51.505 -8 51 C-8 40.11 -8 29.22 -8 18 C-9.65 18 -11.3 18 -13 18 C-13.33 18.99 -13.66 19.98 -14 21 C-16.64 20.67 -19.28 20.34 -22 20 C-22 19.34 -22 18.68 -22 18 C-31.46547884 16.84684522 -37.01382901 18.30924669 -43 26 Z " fill="#2A2F33" transform="translate(116,49)"/>
	<path d="M0 0 C0.99 -0.66 1.98 -1.32 3 -2 C9.62891216 -3.54133797 14.00086325 -2.99956837 20 0 C21.32 0 22.64 0 24 0 C24 -0.66 24 -1.32 24 -2 C28.78127861 -3.59375954 33.8315868 -3.50428214 38.6875 -2.375 C42.77935232 0.05799327 45.45829098 3.1665233 46.8125 7.75 C47.30253729 16.24397969 46.81441039 24.53594911 46 33 C44.58566794 33.2236337 43.16832382 33.42826476 41.75 33.625 C40.96109375 33.74101563 40.1721875 33.85703125 39.359375 33.9765625 C37 34 37 34 33 32 C33 24.41 33 16.82 33 9 C30.69 9.66 28.38 10.32 26 11 C25.96241577 11.89307861 25.96241577 11.89307861 25.92407227 12.80419922 C25.80822506 15.49469136 25.68544804 18.1848234 25.5625 20.875 C25.52318359 21.81214844 25.48386719 22.74929687 25.44335938 23.71484375 C25.38051758 25.05869141 25.38051758 25.05869141 25.31640625 26.4296875 C25.27974854 27.25710449 25.24309082 28.08452148 25.20532227 28.93701172 C25 31 25 31 24 33 C22.0390625 33.44921875 22.0390625 33.44921875 19.625 33.6875 C18.83351563 33.77386719 18.04203125 33.86023438 17.2265625 33.94921875 C15 34 15 34 12 33 C10.74751498 30.49502996 10.88625594 28.79146726 10.90234375 25.9921875 C10.90556641 25.00605469 10.90878906 24.01992187 10.91210938 23.00390625 C10.92467773 21.45509766 10.92467773 21.45509766 10.9375 19.875 C10.94201172 18.83472656 10.94652344 17.79445313 10.95117188 16.72265625 C10.96298048 14.14838038 10.97944925 11.57421854 11 9 C8.69 9.66 6.38 10.32 4 11 C3.98541748 11.62567871 3.97083496 12.25135742 3.95581055 12.89599609 C3.88147196 15.72296402 3.78476766 18.54873208 3.6875 21.375 C3.66494141 22.35984375 3.64238281 23.3446875 3.61914062 24.359375 C3.58369141 25.30039063 3.54824219 26.24140625 3.51171875 27.2109375 C3.48553467 28.08024902 3.45935059 28.94956055 3.43237305 29.84521484 C3 32 3 32 0 34 C-3.70544587 34.19850603 -6.47005387 34.17664871 -10 33 C-10.495 21.615 -10.495 21.615 -11 10 C-12.98 10 -14.96 10 -17 10 C-17.91008223 12.73024668 -18.17048735 14.58431254 -18.28125 17.4140625 C-18.31863281 18.25710937 -18.35601562 19.10015625 -18.39453125 19.96875 C-18.46515346 21.74738356 -18.53546326 23.52602956 -18.60546875 25.3046875 C-18.64285156 26.14515625 -18.68023437 26.985625 -18.71875 27.8515625 C-18.76418945 29.00906006 -18.76418945 29.00906006 -18.81054688 30.18994141 C-19 32 -19 32 -20 33 C-21.99799572 33.09873816 -23.99957158 33.12971799 -26 33.125 C-27.093125 33.12757812 -28.18625 33.13015625 -29.3125 33.1328125 C-32 33 -32 33 -33 32 C-33.21860439 27.61835974 -33.18579078 23.23126872 -33.18530273 18.84472656 C-33.18748408 16.64107816 -33.20562168 14.43793438 -33.22460938 12.234375 C-33.22754428 10.83593922 -33.22952843 9.43750105 -33.23046875 8.0390625 C-33.23457764 6.76240723 -33.23868652 5.48575195 -33.24291992 4.17041016 C-33 1 -33 1 -31 -2 C-28.6171875 -2.29296875 -28.6171875 -2.29296875 -25.875 -2.1875 C-24.96492187 -2.16042969 -24.05484375 -2.13335937 -23.1171875 -2.10546875 C-22.41851562 -2.07066406 -21.71984375 -2.03585938 -21 -2 C-21 -1.34 -21 -0.68 -21 0 C-20.46375 -0.309375 -19.9275 -0.61875 -19.375 -0.9375 C-13.07445065 -3.75616681 -5.81149325 -3.87432883 0 0 Z " fill="#353C3E" transform="translate(242,68)"/>
	<path d="M0 0 C4.90183162 2.49547792 8.38306595 5.6049042 10.4375 10.75 C11.32745033 17.83213103 11.35678494 24.27431126 7.0078125 30.1640625 C4.42215594 32.77544699 1.75902443 34.1832432 -1.5625 35.75 C-2.5525 36.245 -2.5525 36.245 -3.5625 36.75 C-8.65034056 37.00022167 -11.8596385 36.8264816 -16.5625 34.75 C-16.53929687 35.65363281 -16.51609375 36.55726562 -16.4921875 37.48828125 C-16.46511719 39.25751953 -16.46511719 39.25751953 -16.4375 41.0625 C-16.41429687 42.23425781 -16.39109375 43.40601563 -16.3671875 44.61328125 C-16.5625 47.75 -16.5625 47.75 -18.5625 50.75 C-21.1640625 51.04296875 -21.1640625 51.04296875 -24.1875 50.9375 C-25.69183594 50.89689453 -25.69183594 50.89689453 -27.2265625 50.85546875 C-27.99742187 50.82066406 -28.76828125 50.78585938 -29.5625 50.75 C-30.75285891 48.36928218 -30.69548146 46.8968262 -30.70776367 44.24023438 C-30.71414352 43.30586548 -30.72052338 42.37149658 -30.72709656 41.40881348 C-30.72820938 40.39734253 -30.7293222 39.38587158 -30.73046875 38.34375 C-30.73379715 37.30810913 -30.73712555 36.27246826 -30.74055481 35.20544434 C-30.74562336 33.01310674 -30.74796316 30.82076142 -30.74780273 28.62841797 C-30.74999098 25.26386912 -30.76815242 21.89964711 -30.78710938 18.53515625 C-30.79004288 16.40885529 -30.79202796 14.28255277 -30.79296875 12.15625 C-30.80374702 10.63904358 -30.80374702 10.63904358 -30.81474304 9.09118652 C-30.81166641 8.15681763 -30.80858978 7.22244873 -30.80541992 6.25976562 C-30.80684494 5.43528931 -30.80826996 4.61081299 -30.80973816 3.76135254 C-30.5625 1.75 -30.5625 1.75 -28.5625 -0.25 C-25.04148489 -0.39280416 -21.5641684 -0.24373381 -18.04296875 -0.125 C-1.998511 -0.70123193 -1.998511 -0.70123193 0 0 Z M-15.5625 10.75 C-17.67354164 13.49435414 -17.55273867 14.86323145 -17.25 18.375 C-16.74483562 21.6017308 -16.74483562 21.6017308 -15.5625 23.75 C-12.80970222 25.19586908 -12.80970222 25.19586908 -9.5625 25.75 C-6.61799106 24.44132936 -5.01548569 23.65597137 -3.5625 20.75 C-3.08804675 15.71713307 -3.08804675 15.71713307 -5.25 11.3125 C-8.95077884 8.81197375 -11.45889908 9.38213303 -15.5625 10.75 Z " fill="#2B3236" transform="translate(394.5625,66.25)"/>
	<path d="M0 0 C0.78246094 -0.02578125 1.56492187 -0.0515625 2.37109375 -0.078125 C4.5625 0.25 4.5625 0.25 6.3046875 1.31640625 C8.21783316 4.2574221 8.0909439 6.97007703 8.25 10.4375 C8.34861328 12.34595703 8.34861328 12.34595703 8.44921875 14.29296875 C8.48660156 15.26878906 8.52398437 16.24460937 8.5625 17.25 C9.47902344 16.91613281 10.39554687 16.58226563 11.33984375 16.23828125 C16.16816363 14.75759649 19.82406794 15.38078397 24.3125 17.625 C28.26307771 20.47819501 29.98408326 22.58625177 31.5625 27.25 C31.80541992 30.00488281 31.80541992 30.00488281 31.79296875 32.953125 C31.79103516 34.0153125 31.78910156 35.0775 31.78710938 36.171875 C31.76874023 37.81929687 31.76874023 37.81929687 31.75 39.5 C31.74935547 40.61375 31.74871094 41.7275 31.74804688 42.875 C31.70285676 51.10964324 31.70285676 51.10964324 30.5625 52.25 C28.56450428 52.34873816 26.56292842 52.37971799 24.5625 52.375 C23.469375 52.37757812 22.37625 52.38015625 21.25 52.3828125 C18.5625 52.25 18.5625 52.25 17.5625 51.25 C17.40509395 49.54436222 17.31156608 47.83272756 17.24609375 46.12109375 C17.20419922 45.08662109 17.16230469 44.05214844 17.11914062 42.98632812 C17.07982422 41.89771484 17.04050781 40.80910156 17 39.6875 C16.95681641 38.59501953 16.91363281 37.50253906 16.86914062 36.37695312 C16.76267932 33.66810436 16.66066484 30.95916008 16.5625 28.25 C12.22065798 28.43464366 12.22065798 28.43464366 8.5625 30.25 C8.40563751 31.80948542 8.31173361 33.37542668 8.24609375 34.94140625 C8.20419922 35.88564453 8.16230469 36.82988281 8.11914062 37.80273438 C8.07982422 38.79595703 8.04050781 39.78917969 8 40.8125 C7.95681641 41.80958984 7.91363281 42.80667969 7.86914062 43.83398438 C7.76269702 46.3058415 7.66068072 48.7778031 7.5625 51.25 C2.71375475 53.03061266 -0.34006404 53.42633138 -5.4375 52.25 C-7.4375 50.25 -7.4375 50.25 -7.68473816 48.28334045 C-7.68331314 47.47964523 -7.68188812 46.67595001 -7.68041992 45.84790039 C-7.68349655 44.93677994 -7.68657318 44.02565948 -7.68974304 43.08692932 C-7.68255753 42.10046921 -7.67537201 41.11400909 -7.66796875 40.09765625 C-7.66751053 39.0865831 -7.66705231 38.07550995 -7.6665802 37.03379822 C-7.66355542 34.8927188 -7.65566243 32.75164163 -7.64331055 30.6105957 C-7.62509444 27.32951066 -7.62280056 24.04870837 -7.62304688 20.76757812 C-7.61813019 18.69010172 -7.61230121 16.61262724 -7.60546875 14.53515625 C-7.60435593 13.55072037 -7.6032431 12.56628448 -7.60209656 11.55201721 C-7.59571671 10.6377446 -7.58933685 9.72347198 -7.58276367 8.78149414 C-7.57895187 7.97700333 -7.57514008 7.17251251 -7.57121277 6.34364319 C-7.4375 4.25 -7.4375 4.25 -6.4375 1.25 C-4.11063547 0.08656773 -2.59028587 0.05104012 0 0 Z " fill="#272E33" transform="translate(416.4375,48.75)"/>
	<path d="M0 0 C3.68113437 2.16537316 6.33790309 4.00633703 8.1875 7.875 C8.80249497 12.5150414 8.65810038 17.07995796 8.5 21.75 C8.47744141 23.01070312 8.45488281 24.27140625 8.43164062 25.5703125 C8.37287581 28.67309499 8.29075851 31.77343199 8.1875 34.875 C4.59047281 36.41120317 2.49928305 37.07573989 -1.375 36.375 C-5.01480662 35.71895167 -6.58644562 36.12185126 -9.8125 37.875 C-15.05138993 38.3600824 -18.38029301 37.73131117 -22.8125 34.875 C-26.0934044 31.93945396 -27.11071065 29.67505908 -27.375 25.375 C-27.20934642 21.81344793 -26.88586441 20.9714218 -24.625 18 C-23.696875 17.29875 -22.76875 16.5975 -21.8125 15.875 C-21.090625 15.2975 -20.36875 14.72 -19.625 14.125 C-15.48089864 12.28317717 -11.30445423 12.127945 -6.8125 11.875 C-10.79856855 11.12761215 -14.09945634 10.79361435 -18.125 11.375 C-21.8125 11.875 -21.8125 11.875 -23.8125 10.875 C-24.76317299 7.59085695 -24.91352197 6.17806592 -23.8125 2.875 C-15.70137867 -1.03035471 -8.75426089 -2.58322452 0 0 Z M-12.8125 20.875 C-13.1425 22.855 -13.4725 24.835 -13.8125 26.875 C-10.39593976 27.04177282 -10.39593976 27.04177282 -6.8125 26.875 C-6.1525 26.215 -5.4925 25.555 -4.8125 24.875 C-4.8125 23.555 -4.8125 22.235 -4.8125 20.875 C-7.4525 20.875 -10.0925 20.875 -12.8125 20.875 Z " fill="#343B3E" transform="translate(174.8125,65.125)"/>
	<path d="M0 0 C0 0.66 0 1.32 0 2 C0.66 2 1.32 2 2 2 C6.55749404 7.83091149 5.80722027 15.0141498 5 22 C2.63625226 28.05041602 -2.09894704 30.68133956 -7.75 33.25 C-14.4675137 34.80019547 -20.3205442 33.41317377 -26.28125 30.08984375 C-30.70265229 27.28627275 -32.83038758 24.17349237 -34.5390625 19.3046875 C-35.36937189 15.15314054 -34.70330846 11.13511481 -34 7 C-33.34 7 -32.68 7 -32 7 C-31.89945312 6.40445313 -31.79890625 5.80890625 -31.6953125 5.1953125 C-30.46036443 1.29620679 -27.29895118 -0.77009264 -24 -3 C-14.48086438 -6.67405234 -8.62203935 -4.31101968 0 0 Z M-19 8 C-19 8.66 -19 9.32 -19 10 C-19.66 10 -20.32 10 -21 10 C-21 12.97 -21 15.94 -21 19 C-20.34 19 -19.68 19 -19 19 C-19 19.66 -19 20.32 -19 21 C-13.82553224 21.40914759 -13.82553224 21.40914759 -9 20 C-7.36016121 16.72032242 -7.82154362 13.62861311 -8 10 C-8.66 10 -9.32 10 -10 10 C-10 9.34 -10 8.68 -10 8 C-14.53140653 7.06619039 -14.53140653 7.06619039 -19 8 Z " fill="#272D30" transform="translate(326,69)"/>
	<path d="M0 0 C4.70535191 3.46352708 7.44542561 7.56816832 8.83203125 13.20703125 C8.89453125 16.39453125 8.89453125 16.39453125 7.89453125 19.39453125 C5.34470692 20.66944341 3.72987701 20.42049741 0.88671875 20.2734375 C-0.09941406 20.22509766 -1.08554687 20.17675781 -2.1015625 20.12695312 C-3.13410156 20.07087891 -4.16664063 20.01480469 -5.23046875 19.95703125 C-6.27074219 19.90482422 -7.31101562 19.85261719 -8.3828125 19.79882812 C-10.95731991 19.66892179 -13.53146171 19.53394873 -16.10546875 19.39453125 C-15.35396852 22.67226629 -15.35396852 22.67226629 -12.10546875 24.39453125 C-9.3826297 24.70707503 -6.86104389 24.52786553 -4.10546875 24.39453125 C-3.77546875 24.06453125 -3.44546875 23.73453125 -3.10546875 23.39453125 C-0.43488024 23.25337964 2.21885363 23.35206018 4.89453125 23.39453125 C5.64453125 25.58203125 5.64453125 25.58203125 5.89453125 28.39453125 C3.53046556 32.71152077 0.56677009 34.48744307 -3.97265625 35.953125 C-10.89101132 37.38494574 -18.04766261 34.61676856 -24.10546875 31.39453125 C-26.60546875 28.89453125 -26.60546875 28.89453125 -28.10546875 26.39453125 C-28.45996094 25.80414063 -28.81445312 25.21375 -29.1796875 24.60546875 C-31.44282199 19.20068342 -30.73548954 12.43283381 -29.04296875 6.95703125 C-22.1075932 -2.21556222 -10.26631102 -5.73050497 0 0 Z M-16.10546875 9.39453125 C-16.79068396 11.42600466 -16.79068396 11.42600466 -17.10546875 13.39453125 C-15.14721002 13.42147976 -13.18884649 13.44090343 -11.23046875 13.45703125 C-9.59464844 13.47443359 -9.59464844 13.47443359 -7.92578125 13.4921875 C-5.15369329 13.59197428 -5.15369329 13.59197428 -3.10546875 12.39453125 C-3.43546875 11.07453125 -3.76546875 9.75453125 -4.10546875 8.39453125 C-8.91154595 7.38272552 -11.62433235 7.09651258 -16.10546875 9.39453125 Z " fill="#30373A" transform="translate(481.10546875,66.60546875)"/>
	<path d="M0 0 C1.0625 1.625 1.0625 1.625 1.0625 4.625 C1.7225 4.625 2.3825 4.625 3.0625 4.625 C3.0625 13.205 3.0625 21.785 3.0625 30.625 C-0.2375 30.625 -3.5375 30.625 -6.9375 30.625 C-6.99808594 29.14386719 -7.05867188 27.66273437 -7.12109375 26.13671875 C-7.20550315 24.19530266 -7.29015095 22.25389692 -7.375 20.3125 C-7.41431641 19.33603516 -7.45363281 18.35957031 -7.49414062 17.35351562 C-7.53603516 16.41572266 -7.57792969 15.47792969 -7.62109375 14.51171875 C-7.65775146 13.64764404 -7.69440918 12.78356934 -7.73217773 11.89331055 C-7.86497354 9.4602174 -7.86497354 9.4602174 -8.9375 6.625 C-12.35406024 6.45822718 -12.35406024 6.45822718 -15.9375 6.625 C-18.45878356 9.14628356 -18.23103069 10.13739013 -18.3515625 13.6328125 C-18.39023437 14.61894531 -18.42890625 15.60507813 -18.46875 16.62109375 C-18.51515625 18.16990234 -18.51515625 18.16990234 -18.5625 19.75 C-18.60117187 20.79027344 -18.63984375 21.83054687 -18.6796875 22.90234375 C-18.77414766 25.47638311 -18.85971214 28.05041155 -18.9375 30.625 C-20.41656892 30.65189216 -21.89577483 30.67134621 -23.375 30.6875 C-24.61056641 30.70490234 -24.61056641 30.70490234 -25.87109375 30.72265625 C-27.9375 30.625 -27.9375 30.625 -28.9375 29.625 C-29.08288368 27.95421182 -29.16468734 26.27779243 -29.21875 24.6015625 C-29.25613281 23.580625 -29.29351562 22.5596875 -29.33203125 21.5078125 C-29.36683594 20.43273437 -29.40164062 19.35765625 -29.4375 18.25 C-29.50637331 16.13788511 -29.57911769 14.02589191 -29.65625 11.9140625 C-29.68654297 10.97256348 -29.71683594 10.03106445 -29.74804688 9.06103516 C-29.84958755 6.48587445 -29.84958755 6.48587445 -30.9375 3.625 C-32.9175 3.625 -34.8975 3.625 -36.9375 3.625 C-37.2675 2.635 -37.5975 1.645 -37.9375 0.625 C-36.9475 0.625 -35.9575 0.625 -34.9375 0.625 C-34.9375 -0.035 -34.9375 -0.695 -34.9375 -1.375 C-31.6375 -1.045 -28.3375 -0.715 -24.9375 -0.375 C-24.6075 0.615 -24.2775 1.605 -23.9375 2.625 C-23.27363281 2.34785156 -22.60976563 2.07070312 -21.92578125 1.78515625 C-20.60126953 1.24181641 -20.60126953 1.24181641 -19.25 0.6875 C-18.37988281 0.32785156 -17.50976562 -0.03179687 -16.61328125 -0.40234375 C-11.11761969 -2.40003678 -5.10757112 -3.62472789 0 0 Z " fill="#383F42" transform="translate(283.9375,69.375)"/>
	<path d="M0 0 C2 2.0625 2 2.0625 3 5 C1.91642659 8.99567694 1.1973497 11.29387069 -2.4375 13.4375 C-5 14 -5 14 -9 14 C-9.02505615 14.59538574 -9.0501123 15.19077148 -9.07592773 15.80419922 C-9.19177494 18.49469136 -9.31455196 21.1848234 -9.4375 23.875 C-9.47681641 24.81214844 -9.51613281 25.74929687 -9.55664062 26.71484375 C-9.59853516 27.61074219 -9.64042969 28.50664063 -9.68359375 29.4296875 C-9.73858032 30.67081299 -9.73858032 30.67081299 -9.79467773 31.93701172 C-10 34 -10 34 -11 36 C-15.47254497 37.49084832 -19.52745503 37.49084832 -24 36 C-24.0246519 31.17619198 -24.04283693 26.35242033 -24.05493164 21.52856445 C-24.05997174 19.88630536 -24.06680378 18.24405077 -24.07543945 16.60180664 C-24.08751926 14.24624521 -24.09323139 11.89074291 -24.09765625 9.53515625 C-24.10281754 8.79660904 -24.10797882 8.05806183 -24.11329651 7.2971344 C-24.1134925 5.53101912 -24.06194719 3.76502854 -24 2 C-23 1 -23 1 -20.63671875 0.90234375 C-19.66347656 0.91394531 -18.69023437 0.92554687 -17.6875 0.9375 C-16.72199219 0.94652344 -15.75648438 0.95554687 -14.76171875 0.96484375 C-13.85035156 0.97644531 -12.93898438 0.98804687 -12 1 C-7.74592091 1 -4.21259745 -0.63188962 0 0 Z " fill="#20272A" transform="translate(359,65)"/>
	<path d="M0 0 C1.423125 0.2784375 1.423125 0.2784375 2.875 0.5625 C5.89868793 1.28686632 5.89868793 1.28686632 8 0 C15.46666667 -0.35555556 15.46666667 -0.35555556 19 2 C19 2.66 19 3.32 19 4 C19.4846875 3.71125 19.969375 3.4225 20.46875 3.125 C26.26691985 -0.08629407 30.65392383 -1.08651904 37.25 0.5625 C40.7849565 3.46621426 42.75232538 7.05321011 43.32324219 11.54077148 C43.39240543 14.34965116 43.3498006 17.1296485 43.25 19.9375 C43.23195313 20.90751953 43.21390625 21.87753906 43.1953125 22.87695312 C43.14850667 25.25234894 43.08296385 27.62563844 43 30 C41.34385343 30.38218767 39.67542976 30.71395102 38 31 C36.39693019 29.39693019 36.79729376 27.63208803 36.71875 25.4140625 C36.66267578 24.01800781 36.66267578 24.01800781 36.60546875 22.59375 C36.57066406 21.6140625 36.53585937 20.634375 36.5 19.625 C36.43108101 17.70037352 36.35832899 15.77587945 36.28125 13.8515625 C36.25095703 12.99385254 36.22066406 12.13614258 36.18945312 11.25244141 C36.07495932 8.83220799 36.07495932 8.83220799 35 6 C33.1128125 5.8453125 33.1128125 5.8453125 31.1875 5.6875 C30.47980469 5.62949219 29.77210938 5.57148437 29.04296875 5.51171875 C26.82424631 5.84047904 26.82424631 5.84047904 25.28125 7.875 C23.45474225 12.32989696 23.43057932 16.53872165 23.3125 21.3125 C23.27833984 22.24384766 23.24417969 23.17519531 23.20898438 24.13476562 C23.12684059 26.42305672 23.05758338 28.71098104 23 31 C21.35 31 19.7 31 18 31 C17.96261719 29.68644531 17.92523437 28.37289062 17.88671875 27.01953125 C17.82104343 25.28382636 17.75459663 23.54815053 17.6875 21.8125 C17.66494141 20.94818359 17.64238281 20.08386719 17.61914062 19.19335938 C17.41811238 14.42350744 17.23542918 10.78484169 14 7 C10.9042893 6.10792821 10.9042893 6.10792821 8 6 C5.43925687 8.96915036 4.61356564 10.85675216 4.48828125 14.765625 C4.45283203 15.65507813 4.41738281 16.54453125 4.38085938 17.4609375 C4.35830078 18.38132812 4.33574219 19.30171875 4.3125 20.25 C4.27833984 21.18585938 4.24417969 22.12171875 4.20898438 23.0859375 C4.12667838 25.39050533 4.0574737 27.69470119 4 30 C2.0625 30.5625 2.0625 30.5625 0 31 C-2.47731963 28.52268037 -1.53478671 22.21433064 -1.6875 18.875 C-1.77741211 17.32425781 -1.77741211 17.32425781 -1.86914062 15.7421875 C-2.13591305 10.01206192 -1.99555931 5.39794972 0 0 Z " fill="#979898" transform="translate(569,69)"/>
	<path d="M0 0 C1.97909398 -0.02686553 3.95828971 -0.04633375 5.9375 -0.0625 C7.03964844 -0.07410156 8.14179688 -0.08570312 9.27734375 -0.09765625 C12 0 12 0 13 1 C13.11317284 3.35228319 13.16416537 5.67411948 13.16796875 8.02734375 C13.17129715 8.73145889 13.17462555 9.43557404 13.17805481 10.161026 C13.18312655 11.65316106 13.18546306 13.1453075 13.18530273 14.63745117 C13.18748759 16.92450607 13.20563549 19.21107753 13.22460938 21.49804688 C13.22754354 22.94531084 13.22952818 24.39257711 13.23046875 25.83984375 C13.23765427 26.52634506 13.24483978 27.21284637 13.25224304 27.92015076 C13.22882369 32.77117631 13.22882369 32.77117631 11 35 C8.9765625 35.484375 8.9765625 35.484375 6.625 35.75 C5.46871094 35.89695312 5.46871094 35.89695312 4.2890625 36.046875 C1.66918253 35.99322558 0.27981185 35.22413247 -2 34 C-2.04962653 29.96154588 -2.08582632 25.92321113 -2.10986328 21.88452148 C-2.11988926 20.51209417 -2.13351356 19.13968805 -2.15087891 17.76733398 C-2.17527627 15.78899473 -2.18544484 13.81049633 -2.1953125 11.83203125 C-2.20578613 10.64327393 -2.21625977 9.4545166 -2.22705078 8.22973633 C-2.00370033 5.05263614 -1.36116639 2.85656545 0 0 Z " fill="#62686A" transform="translate(191,66)"/>
	<path d="M0 0 C0.68384766 0.00902344 1.36769531 0.01804687 2.07226562 0.02734375 C3.73583287 0.05061042 5.39921631 0.08646833 7.0625 0.125 C7.0625 0.785 7.0625 1.445 7.0625 2.125 C9.5375 2.62 9.5375 2.62 12.0625 3.125 C14.62004854 8.97804587 14.32354631 14.67832169 14.25 20.9375 C14.24935547 21.99904297 14.24871094 23.06058594 14.24804688 24.15429688 C14.2029591 31.9845409 14.2029591 31.9845409 13.0625 33.125 C6.9101668 33.35716352 6.9101668 33.35716352 4.22265625 32.62109375 C1.38377799 31.96912713 -1.27846169 32.03088002 -4.1875 32.0625 C-5.80398437 32.07603516 -5.80398437 32.07603516 -7.453125 32.08984375 C-8.68289062 32.10724609 -8.68289062 32.10724609 -9.9375 32.125 C-8.48708473 29.22416946 -6.6481171 29.15005692 -3.625 28.125 C-0.26141153 26.97536229 2.92184361 25.79603808 6.0625 24.125 C5.4025 21.815 4.7425 19.505 4.0625 17.125 C-2.8675 16.63 -2.8675 16.63 -9.9375 16.125 C-9.9375 15.795 -9.9375 15.465 -9.9375 15.125 C-4.9875 14.795 -0.0375 14.465 5.0625 14.125 C5.0625 11.815 5.0625 9.505 5.0625 7.125 C-1.5375 7.125 -8.1375 7.125 -14.9375 7.125 C-14.9375 5.475 -14.9375 3.825 -14.9375 2.125 C-9.77803135 0.4208322 -5.4949667 -0.09725605 0 0 Z " fill="#2D3539" transform="translate(166.9375,66.875)"/>
	<path d="M0 0 C4.90183162 2.49547792 8.38306595 5.6049042 10.4375 10.75 C11.32745033 17.83213103 11.35678494 24.27431126 7.0078125 30.1640625 C4.42215594 32.77544699 1.75902443 34.1832432 -1.5625 35.75 C-2.5525 36.245 -2.5525 36.245 -3.5625 36.75 C-8.65034056 37.00022167 -11.8596385 36.8264816 -16.5625 34.75 C-16.53929687 35.65363281 -16.51609375 36.55726562 -16.4921875 37.48828125 C-16.46511719 39.25751953 -16.46511719 39.25751953 -16.4375 41.0625 C-16.41429687 42.23425781 -16.39109375 43.40601563 -16.3671875 44.61328125 C-16.5625 47.75 -16.5625 47.75 -18.5625 50.75 C-21.1640625 51.04296875 -21.1640625 51.04296875 -24.1875 50.9375 C-25.69183594 50.89689453 -25.69183594 50.89689453 -27.2265625 50.85546875 C-27.99742187 50.82066406 -28.76828125 50.78585938 -29.5625 50.75 C-30.75285891 48.36928218 -30.69548146 46.8968262 -30.70776367 44.24023438 C-30.71414352 43.30586548 -30.72052338 42.37149658 -30.72709656 41.40881348 C-30.72820938 40.39734253 -30.7293222 39.38587158 -30.73046875 38.34375 C-30.73379715 37.30810913 -30.73712555 36.27246826 -30.74055481 35.20544434 C-30.74562336 33.01310674 -30.74796316 30.82076142 -30.74780273 28.62841797 C-30.74999098 25.26386912 -30.76815242 21.89964711 -30.78710938 18.53515625 C-30.79004288 16.40885529 -30.79202796 14.28255277 -30.79296875 12.15625 C-30.80374702 10.63904358 -30.80374702 10.63904358 -30.81474304 9.09118652 C-30.81166641 8.15681763 -30.80858978 7.22244873 -30.80541992 6.25976562 C-30.80684494 5.43528931 -30.80826996 4.61081299 -30.80973816 3.76135254 C-30.5625 1.75 -30.5625 1.75 -28.5625 -0.25 C-25.04148489 -0.39280416 -21.5641684 -0.24373381 -18.04296875 -0.125 C-1.998511 -0.70123193 -1.998511 -0.70123193 0 0 Z M-13.25 2.8125 C-16.5625 3.75 -16.5625 3.75 -27.5625 2.75 C-27.5625 17.93 -27.5625 33.11 -27.5625 48.75 C-24.9225 48.75 -22.2825 48.75 -19.5625 48.75 C-19.5625 43.14 -19.5625 37.53 -19.5625 31.75 C-18.2425 31.75 -16.9225 31.75 -15.5625 31.75 C-15.5625 32.41 -15.5625 33.07 -15.5625 33.75 C-11.33139493 35.86555254 -6.28776296 34.89505259 -1.8125 34 C2.22102906 32.44864267 4.50205474 30.62089052 6.4375 26.75 C6.64161054 23.79622888 6.76132545 20.89399311 6.8125 17.9375 C6.84988281 17.12990234 6.88726562 16.32230469 6.92578125 15.49023438 C6.99043011 11.1048865 6.88618486 9.3237773 4.09765625 5.7578125 C-1.16084178 1.78884336 -6.99366456 0.33906506 -13.25 2.8125 Z " fill="#939698" transform="translate(394.5625,66.25)"/>
	<path d="M0 0 C3.31244212 2.53873301 5.24691929 4.86535115 6.16796875 8.91796875 C6.82285432 14.34123986 6.57059355 18.78620511 3.484375 23.41015625 C0.36399917 26.98423658 -2.75672702 28.66535082 -7.3671875 29.2265625 C-11.80138057 29.33758059 -14.93062698 29.16015511 -18.83203125 26.91796875 C-18.83203125 26.25796875 -18.83203125 25.59796875 -18.83203125 24.91796875 C-19.49203125 24.91796875 -20.15203125 24.91796875 -20.83203125 24.91796875 C-24.45321243 19.82568272 -25.59852206 15.85147899 -25.33984375 9.57421875 C-24.48909876 5.12416801 -22.40264664 2.60544686 -18.83203125 -0.08203125 C-12.60743787 -3.95772147 -6.301167 -3.72158477 0 0 Z M-19.14453125 7.73046875 C-20.47769697 11.97235967 -20.17174451 15.03471428 -18.58203125 19.16796875 C-16.73306903 22.07348081 -16.09772564 23.01083142 -12.83203125 23.91796875 C-8.700514 24.36867972 -6.58152434 24.38432001 -3.01953125 22.16796875 C0.49908212 18.54882357 1.14857738 17.13962483 1.23046875 11.98046875 C0.69481858 8.56888732 -0.29579876 7.0330796 -3.01953125 4.91796875 C-8.88487948 1.36757391 -14.94866179 1.93617283 -19.14453125 7.73046875 Z " fill="#ADAEAE" transform="translate(555.83203125,71.08203125)"/>
	<path d="M0 0 C0.78246094 -0.02578125 1.56492187 -0.0515625 2.37109375 -0.078125 C4.5625 0.25 4.5625 0.25 6.3046875 1.31640625 C8.21783316 4.2574221 8.0909439 6.97007703 8.25 10.4375 C8.34861328 12.34595703 8.34861328 12.34595703 8.44921875 14.29296875 C8.48660156 15.26878906 8.52398437 16.24460937 8.5625 17.25 C9.47902344 16.91613281 10.39554687 16.58226563 11.33984375 16.23828125 C16.16816363 14.75759649 19.82406794 15.38078397 24.3125 17.625 C28.26307771 20.47819501 29.98408326 22.58625177 31.5625 27.25 C31.80541992 30.00488281 31.80541992 30.00488281 31.79296875 32.953125 C31.79103516 34.0153125 31.78910156 35.0775 31.78710938 36.171875 C31.76874023 37.81929687 31.76874023 37.81929687 31.75 39.5 C31.74935547 40.61375 31.74871094 41.7275 31.74804688 42.875 C31.70285676 51.10964324 31.70285676 51.10964324 30.5625 52.25 C28.56450428 52.34873816 26.56292842 52.37971799 24.5625 52.375 C23.469375 52.37757812 22.37625 52.38015625 21.25 52.3828125 C18.5625 52.25 18.5625 52.25 17.5625 51.25 C17.40509395 49.54436222 17.31156608 47.83272756 17.24609375 46.12109375 C17.20419922 45.08662109 17.16230469 44.05214844 17.11914062 42.98632812 C17.07982422 41.89771484 17.04050781 40.80910156 17 39.6875 C16.95681641 38.59501953 16.91363281 37.50253906 16.86914062 36.37695312 C16.76267932 33.66810436 16.66066484 30.95916008 16.5625 28.25 C12.22065798 28.43464366 12.22065798 28.43464366 8.5625 30.25 C8.40563751 31.80948542 8.31173361 33.37542668 8.24609375 34.94140625 C8.20419922 35.88564453 8.16230469 36.82988281 8.11914062 37.80273438 C8.07982422 38.79595703 8.04050781 39.78917969 8 40.8125 C7.95681641 41.80958984 7.91363281 42.80667969 7.86914062 43.83398438 C7.76269702 46.3058415 7.66068072 48.7778031 7.5625 51.25 C2.71375475 53.03061266 -0.34006404 53.42633138 -5.4375 52.25 C-7.4375 50.25 -7.4375 50.25 -7.68473816 48.28334045 C-7.68331314 47.47964523 -7.68188812 46.67595001 -7.68041992 45.84790039 C-7.68349655 44.93677994 -7.68657318 44.02565948 -7.68974304 43.08692932 C-7.68255753 42.10046921 -7.67537201 41.11400909 -7.66796875 40.09765625 C-7.66751053 39.0865831 -7.66705231 38.07550995 -7.6665802 37.03379822 C-7.66355542 34.8927188 -7.65566243 32.75164163 -7.64331055 30.6105957 C-7.62509444 27.32951066 -7.62280056 24.04870837 -7.62304688 20.76757812 C-7.61813019 18.69010172 -7.61230121 16.61262724 -7.60546875 14.53515625 C-7.60435593 13.55072037 -7.6032431 12.56628448 -7.60209656 11.55201721 C-7.59571671 10.6377446 -7.58933685 9.72347198 -7.58276367 8.78149414 C-7.57895187 7.97700333 -7.57514008 7.17251251 -7.57121277 6.34364319 C-7.4375 4.25 -7.4375 4.25 -6.4375 1.25 C-4.11063547 0.08656773 -2.59028587 0.05104012 0 0 Z M-5.4375 2.25 C-5.4375 18.42 -5.4375 34.59 -5.4375 51.25 C-2.1375 51.25 1.1625 51.25 4.5625 51.25 C6.24550669 49.56699331 5.79059077 47.42991273 5.87890625 45.12109375 C5.92080078 44.08662109 5.96269531 43.05214844 6.00585938 41.98632812 C6.06483398 40.3534082 6.06483398 40.3534082 6.125 38.6875 C6.16818359 37.59501953 6.21136719 36.50253906 6.25585938 35.37695312 C6.36231958 32.66813232 6.46294807 29.95908349 6.5625 27.25 C10.8525 27.25 15.1425 27.25 19.5625 27.25 C19.5625 34.84 19.5625 42.43 19.5625 50.25 C22.8625 50.25 26.1625 50.25 29.5625 50.25 C29.64982726 46.35430865 29.70300185 42.45887018 29.75 38.5625 C29.77513672 37.45970703 29.80027344 36.35691406 29.82617188 35.22070312 C29.84067383 33.6206543 29.84067383 33.6206543 29.85546875 31.98828125 C29.8711792 31.00899658 29.88688965 30.02971191 29.90307617 29.02075195 C29.41876457 25.08064271 27.55117907 22.58471674 25.234375 19.45703125 C22.76779866 17.67625534 20.81937792 17.88789415 17.8125 17.9375 C16.80703125 17.94136719 15.8015625 17.94523437 14.765625 17.94921875 C10.87003441 18.21613145 10.87003441 18.21613145 4.5625 20.25 C4.5625 14.31 4.5625 8.37 4.5625 2.25 C1.2625 2.25 -2.0375 2.25 -5.4375 2.25 Z " fill="#A6A9A9" transform="translate(416.4375,48.75)"/>
	<path d="M0 0 C3.67829243 1.83914622 5.61878665 3.46391872 8 6.8125 C9.29035352 10.92550185 8.68916281 13.08421349 7 17 C6.01 17.33 5.02 17.66 4 18 C4 18.66 4 19.32 4 20 C0.92859569 21.81205858 -1.02777299 22.22518386 -4.5625 21.8125 C-5.32691406 21.73644531 -6.09132813 21.66039063 -6.87890625 21.58203125 C-10.60667581 20.55912579 -11.90835129 18.13747307 -14 15 C-14.48692434 10.69883501 -14.28241006 8.51612874 -12.1875 4.6875 C-8.41393311 0.05140353 -5.84123066 -0.59402346 0 0 Z " fill="#2E3437" transform="translate(93,73)"/>
	<path d="M0 0 C2.32284022 1.88730768 3.84985241 3.50555059 4.25878906 6.55444336 C4.26104492 7.26737549 4.26330078 7.98030762 4.265625 8.71484375 C4.26949219 9.89143555 4.26949219 9.89143555 4.2734375 11.09179688 C4.26570313 11.90712891 4.25796875 12.72246094 4.25 13.5625 C4.25773437 14.37396484 4.26546875 15.18542969 4.2734375 16.02148438 C4.27085937 16.80716797 4.26828125 17.59285156 4.265625 18.40234375 C4.26336914 19.11640381 4.26111328 19.83046387 4.25878906 20.56616211 C3.82823909 23.99147146 2.60516362 26.0784006 0.0625 28.375 C-5.30503079 30.5658289 -11.51616488 30.45294504 -17 28.625 C-17.75 26.625 -17.75 26.625 -18 24.625 C-17 23.625 -17 23.625 -14.49609375 23.52734375 C-13.48675781 23.53894531 -12.47742188 23.55054687 -11.4375 23.5625 C-10.42558594 23.57152344 -9.41367187 23.58054687 -8.37109375 23.58984375 C-7.19740234 23.60724609 -7.19740234 23.60724609 -6 23.625 C-5.21277235 20.15120181 -4.86434029 16.93534371 -4.875 13.375 C-4.87242187 12.50359375 -4.86984375 11.6321875 -4.8671875 10.734375 C-4.76572669 8.63884805 -4.76572669 8.63884805 -6 7.625 C-6 5.975 -6 4.325 -6 2.625 C-10.29 2.625 -14.58 2.625 -19 2.625 C-18 -0.375 -18 -0.375 -16.0625 -1.625 C-10.55944007 -2.97268814 -5.13921004 -2.35547127 0 0 Z " fill="#262E34" transform="translate(397,70.375)"/>
	<path d="M0 0 C5.35840795 5.35840795 5.99748193 9.3680627 6.125 16.625 C6.07179788 22.44176502 5.55684465 28.21279311 5 34 C3.58566794 34.2236337 2.16832382 34.42826476 0.75 34.625 C-0.03890625 34.74101563 -0.8278125 34.85703125 -1.640625 34.9765625 C-4 35 -4 35 -8 33 C-8 25.41 -8 17.82 -8 10 C-10.31 10.66 -12.62 11.32 -15 12 C-15.02505615 12.59538574 -15.0501123 13.19077148 -15.07592773 13.80419922 C-15.19177494 16.49469136 -15.31455196 19.1848234 -15.4375 21.875 C-15.47681641 22.81214844 -15.51613281 23.74929687 -15.55664062 24.71484375 C-15.59853516 25.61074219 -15.64042969 26.50664063 -15.68359375 27.4296875 C-15.72025146 28.25710449 -15.75690918 29.08452148 -15.79467773 29.93701172 C-16 32 -16 32 -17 34 C-18.9609375 34.44921875 -18.9609375 34.44921875 -21.375 34.6875 C-22.16648437 34.77386719 -22.95796875 34.86023438 -23.7734375 34.94921875 C-26 35 -26 35 -29 34 C-30.25248502 31.49502996 -30.11374406 29.79146726 -30.09765625 26.9921875 C-30.09443359 26.00605469 -30.09121094 25.01992187 -30.08789062 24.00390625 C-30.07951172 22.97136719 -30.07113281 21.93882813 -30.0625 20.875 C-30.05798828 19.83472656 -30.05347656 18.79445313 -30.04882812 17.72265625 C-30.03701952 15.14838038 -30.02055075 12.57421854 -30 10 C-32.31 10.66 -34.62 11.32 -37 12 C-37.33 18.93 -37.66 25.86 -38 33 C-38.33 33 -38.66 33 -39 33 C-39.05786668 29.20839703 -39.09355054 25.41690689 -39.125 21.625 C-39.14175781 20.54476562 -39.15851563 19.46453125 -39.17578125 18.3515625 C-39.18222656 17.3203125 -39.18867188 16.2890625 -39.1953125 15.2265625 C-39.20578613 14.27346191 -39.21625977 13.32036133 -39.22705078 12.33837891 C-39 10 -39 10 -37 8 C-34.28545044 7.67247766 -31.74769241 7.8691575 -29 8 C-27.31699331 9.68300669 -27.77190923 11.82008727 -27.68359375 14.12890625 C-27.62075195 15.68061523 -27.62075195 15.68061523 -27.55664062 17.26367188 C-27.49766602 18.8965918 -27.49766602 18.8965918 -27.4375 20.5625 C-27.39431641 21.65498047 -27.35113281 22.74746094 -27.30664062 23.87304688 C-27.20017932 26.58189564 -27.09816484 29.29083992 -27 32 C-24.03 32.33 -21.06 32.66 -18 33 C-18.01571045 32.34926514 -18.0314209 31.69853027 -18.04760742 31.02807617 C-18.10994649 28.08130576 -18.14898684 25.13467402 -18.1875 22.1875 C-18.21263672 21.16333984 -18.23777344 20.13917969 -18.26367188 19.08398438 C-18.27333984 18.10107422 -18.28300781 17.11816406 -18.29296875 16.10546875 C-18.3086792 15.19949951 -18.32438965 14.29353027 -18.34057617 13.36010742 C-18 11 -18 11 -16.7121582 9.19262695 C-13.96030696 7.27578775 -11.24192058 7.81649506 -8 8 C-6.16930097 11.12929178 -5.76068819 13.37643146 -5.8046875 16.984375 C-5.81113281 17.91894531 -5.81757813 18.85351562 -5.82421875 19.81640625 C-5.84097656 20.78449219 -5.85773438 21.75257812 -5.875 22.75 C-5.88402344 23.73355469 -5.89304687 24.71710938 -5.90234375 25.73046875 C-5.92587075 28.15375026 -5.96174063 30.57690631 -6 33 C-2.7 33 0.6 33 4 33 C4 24.42 4 15.84 4 7 C3.34 7 2.68 7 2 7 C1.4121875 5.7934375 1.4121875 5.7934375 0.8125 4.5625 C-0.8175546 1.71297722 -0.8175546 1.71297722 -4.125 1 C-8.2775264 1 -11.07603106 1.85498177 -14.91015625 3.296875 C-17.34864947 4.11730263 -19.44373799 4.24738019 -22 4 C-22.33 3.01 -22.66 2.02 -23 1 C-21 1 -19 1 -17 1 C-17 0.34 -17 -0.32 -17 -1 C-11.53919279 -2.82026907 -5.00707025 -2.97717691 0 0 Z " fill="#B0B2B3" transform="translate(283,67)"/>
	<path d="M0 0 C0.99 0.66 1.98 1.32 3 2 C3 3.32 3 4.64 3 6 C1.7625 5.7525 1.7625 5.7525 0.5 5.5 C-5.33871309 4.66589813 -10.56297751 4.28148875 -16 7 C-17.29058631 13.96707189 -17.29058631 13.96707189 -15.1875 20.5625 C-13.23931425 23.03324797 -13.23931425 23.03324797 -11 24 C-5.11834264 24.46588282 -5.11834264 24.46588282 0 22 C1.32 22 2.64 22 4 22 C3.68320813 24.93032479 3.4689561 26.54518875 1.31640625 28.6328125 C-3.11368849 31.24753958 -8.04662696 30.8039506 -13 30 C-15.95093829 28.45230509 -17.90179675 26.56447064 -20 24 C-20.639375 23.236875 -21.27875 22.47375 -21.9375 21.6875 C-23.74969401 17.10371515 -24.04016331 12.4630707 -22.09765625 7.86328125 C-21.14589838 6.19347117 -20.08168788 4.58872908 -19 3 C-18.34 3 -17.68 3 -17 3 C-17 2.34 -17 1.68 -17 1 C-10.73470513 -1.34475824 -6.444673 -2.76200271 0 0 Z " fill="#A3A5A3" transform="translate(524,70)"/>
	<path d="M0 0 C4.70535191 3.46352708 7.44542561 7.56816832 8.83203125 13.20703125 C8.89453125 16.39453125 8.89453125 16.39453125 7.89453125 19.39453125 C5.34470692 20.66944341 3.72987701 20.42049741 0.88671875 20.2734375 C-0.09941406 20.22509766 -1.08554687 20.17675781 -2.1015625 20.12695312 C-3.13410156 20.07087891 -4.16664063 20.01480469 -5.23046875 19.95703125 C-6.27074219 19.90482422 -7.31101562 19.85261719 -8.3828125 19.79882812 C-10.95731991 19.66892179 -13.53146171 19.53394873 -16.10546875 19.39453125 C-15.35396852 22.67226629 -15.35396852 22.67226629 -12.10546875 24.39453125 C-9.3826297 24.70707503 -6.86104389 24.52786553 -4.10546875 24.39453125 C-3.77546875 24.06453125 -3.44546875 23.73453125 -3.10546875 23.39453125 C-0.43488024 23.25337964 2.21885363 23.35206018 4.89453125 23.39453125 C5.64453125 25.58203125 5.64453125 25.58203125 5.89453125 28.39453125 C3.53046556 32.71152077 0.56677009 34.48744307 -3.97265625 35.953125 C-10.7420554 37.35411786 -18.22350561 34.71961762 -24.10546875 31.39453125 C-24.60046875 29.90953125 -24.60046875 29.90953125 -25.10546875 28.39453125 C-20.34904417 30.24425192 -20.34904417 30.24425192 -18.40234375 31.4453125 C-15.10629432 32.80745538 -12.15748938 32.696543 -8.60546875 32.70703125 C-7.29578125 32.72378906 -5.98609375 32.74054688 -4.63671875 32.7578125 C-1.00923676 32.38463128 0.40509525 31.99488272 2.89453125 29.39453125 C3.69875205 26.79597392 3.69875205 26.79597392 3.89453125 24.39453125 C2.96640625 24.72453125 2.03828125 25.05453125 1.08203125 25.39453125 C-5.24084181 27.1808714 -11.69332754 27.37574123 -17.79296875 24.89453125 C-18.55609375 24.39953125 -19.31921875 23.90453125 -20.10546875 23.39453125 C-20.14801231 21.39498379 -20.14627658 19.39411489 -20.10546875 17.39453125 C-18.53713883 15.82620133 -16.98313597 16.26478149 -14.80859375 16.26171875 C-13.49375 16.25978516 -13.49375 16.25978516 -12.15234375 16.2578125 C-10.76789063 16.26361328 -10.76789063 16.26361328 -9.35546875 16.26953125 C-8.44796875 16.26566406 -7.54046875 16.26179688 -6.60546875 16.2578125 C-5.28289062 16.25974609 -5.28289062 16.25974609 -3.93359375 16.26171875 C-2.72558105 16.26341064 -2.72558105 16.26341064 -1.49316406 16.26513672 C1.04800243 16.4028482 3.41376511 16.83963753 5.89453125 17.39453125 C5.89453125 15.74453125 5.89453125 14.09453125 5.89453125 12.39453125 C5.23453125 12.39453125 4.57453125 12.39453125 3.89453125 12.39453125 C3.724375 11.76804687 3.55421875 11.1415625 3.37890625 10.49609375 C3.1365625 9.67882812 2.89421875 8.8615625 2.64453125 8.01953125 C2.4125 7.20742187 2.18046875 6.3953125 1.94140625 5.55859375 C1.0618376 3.32092909 1.0618376 3.32092909 -0.78125 2.12890625 C-3.92253322 1.13636634 -6.75104203 1.05466387 -10.04296875 1.01953125 C-11.24824219 0.99117188 -12.45351563 0.9628125 -13.6953125 0.93359375 C-17.69147459 1.47373937 -19.18238412 2.70651986 -22.10546875 5.39453125 C-24.91796875 6.64453125 -24.91796875 6.64453125 -27.10546875 7.39453125 C-27.10546875 6.40453125 -27.10546875 5.41453125 -27.10546875 4.39453125 C-19.73274427 -2.95638044 -9.1451614 -5.10469561 0 0 Z " fill="#4A4F53" transform="translate(481.10546875,66.60546875)"/>
	<path d="M0 0 C3.68113437 2.16537316 6.33790309 4.00633703 8.1875 7.875 C8.80249497 12.5150414 8.65810038 17.07995796 8.5 21.75 C8.47744141 23.01070312 8.45488281 24.27140625 8.43164062 25.5703125 C8.37287581 28.67309499 8.29075851 31.77343199 8.1875 34.875 C4.59047281 36.41120317 2.49928305 37.07573989 -1.375 36.375 C-5.01480662 35.71895167 -6.58644562 36.12185126 -9.8125 37.875 C-15.05138993 38.3600824 -18.38029301 37.73131117 -22.8125 34.875 C-26.0934044 31.93945396 -27.11071065 29.67505908 -27.375 25.375 C-27.20934642 21.81344793 -26.88586441 20.9714218 -24.625 18 C-23.696875 17.29875 -22.76875 16.5975 -21.8125 15.875 C-21.090625 15.2975 -20.36875 14.72 -19.625 14.125 C-15.48089864 12.28317717 -11.30445423 12.127945 -6.8125 11.875 C-10.79856855 11.12761215 -14.09945634 10.79361435 -18.125 11.375 C-21.8125 11.875 -21.8125 11.875 -23.8125 10.875 C-24.76317299 7.59085695 -24.91352197 6.17806592 -23.8125 2.875 C-15.70137867 -1.03035471 -8.75426089 -2.58322452 0 0 Z M-22.8125 3.875 C-22.8125 5.525 -22.8125 7.175 -22.8125 8.875 C-21.68070313 8.93558594 -20.54890625 8.99617188 -19.3828125 9.05859375 C-17.90102855 9.14299917 -16.4192584 9.22764717 -14.9375 9.3125 C-13.81794922 9.37147461 -13.81794922 9.37147461 -12.67578125 9.43164062 C-7.0390625 9.76171875 -7.0390625 9.76171875 -4.8125 10.875 C-4.8125 11.865 -4.8125 12.855 -4.8125 13.875 C-5.99005859 13.91367188 -5.99005859 13.91367188 -7.19140625 13.953125 C-14.94296873 14.37161426 -20.1631454 15.2256454 -25.8125 20.875 C-26.36995001 25.6531429 -26.22316696 27.99048654 -24.1875 32.375 C-22.00199209 34.71933842 -20.7131402 34.88695568 -17.46875 35.27734375 C-10.5308204 35.35337236 -10.5308204 35.35337236 -3.8125 33.875 C-3.1525 34.205 -2.4925 34.535 -1.8125 34.875 C1.72921978 35.04169318 1.72921978 35.04169318 5.1875 34.875 C7.63567194 32.42682806 6.37300393 25.97502481 6.375 22.6875 C6.39336914 21.12418945 6.39336914 21.12418945 6.41210938 19.52929688 C6.4221654 14.25658881 6.3379321 9.79634461 4.1875 4.875 C1.7125 4.38 1.7125 4.38 -0.8125 3.875 C-0.8125 3.215 -0.8125 2.555 -0.8125 1.875 C-3.16698675 1.82045591 -5.52017875 1.7810721 -7.875 1.75 C-9.18597656 1.72679688 -10.49695313 1.70359375 -11.84765625 1.6796875 C-15.93074299 1.88082478 -18.96249053 2.60334538 -22.8125 3.875 Z " fill="#ACAFB0" transform="translate(174.8125,65.125)"/>
	<path d="M0 0 C3.5349565 2.90371426 5.50232538 6.49071011 6.07324219 10.97827148 C6.14240543 13.78715116 6.0998006 16.5671485 6 19.375 C5.98195313 20.34501953 5.96390625 21.31503906 5.9453125 22.31445312 C5.89850667 24.68984894 5.83296385 27.06313844 5.75 29.4375 C4.09385343 29.81968767 2.42542976 30.15145102 0.75 30.4375 C-0.85306981 28.83443019 -0.45270624 27.06958803 -0.53125 24.8515625 C-0.56863281 23.92085937 -0.60601563 22.99015625 -0.64453125 22.03125 C-0.67933594 21.0515625 -0.71414063 20.071875 -0.75 19.0625 C-0.81891899 17.13787352 -0.89167101 15.21337945 -0.96875 13.2890625 C-0.99904297 12.43135254 -1.02933594 11.57364258 -1.06054688 10.68994141 C-1.17504068 8.26970799 -1.17504068 8.26970799 -2.25 5.4375 C-4.1371875 5.2828125 -4.1371875 5.2828125 -6.0625 5.125 C-6.77019531 5.06699219 -7.47789062 5.00898437 -8.20703125 4.94921875 C-10.42575369 5.27797904 -10.42575369 5.27797904 -11.96875 7.3125 C-13.79525775 11.76739696 -13.81942068 15.97622165 -13.9375 20.75 C-13.97166016 21.68134766 -14.00582031 22.61269531 -14.04101562 23.57226562 C-14.12315941 25.86055672 -14.19241662 28.14848104 -14.25 30.4375 C-15.9 30.4375 -17.55 30.4375 -19.25 30.4375 C-19.58 23.1775 -19.91 15.9175 -20.25 8.4375 C-19.59 8.4375 -18.93 8.4375 -18.25 8.4375 C-18.25 15.3675 -18.25 22.2975 -18.25 29.4375 C-17.26 29.4375 -16.27 29.4375 -15.25 29.4375 C-15.25523682 28.85782471 -15.26047363 28.27814941 -15.26586914 27.6809082 C-15.28674334 25.0372833 -15.29969327 22.39367579 -15.3125 19.75 C-15.32087891 18.83798828 -15.32925781 17.92597656 -15.33789062 16.98632812 C-15.34111328 16.10009766 -15.34433594 15.21386719 -15.34765625 14.30078125 C-15.35289307 13.48907471 -15.35812988 12.67736816 -15.36352539 11.84106445 C-15.2429791 9.28885327 -14.809949 6.92723863 -14.25 4.4375 C-16.23 4.4375 -18.21 4.4375 -20.25 4.4375 C-20.25 3.4475 -20.25 2.4575 -20.25 1.4375 C-19.59 1.4375 -18.93 1.4375 -18.25 1.4375 C-18.25 2.0975 -18.25 2.7575 -18.25 3.4375 C-17.7653125 3.14875 -17.280625 2.86 -16.78125 2.5625 C-10.98308015 -0.64879407 -6.59607617 -1.64901904 0 0 Z " fill="#BCBDBD" transform="translate(606.25,69.5625)"/>
	<path d="M0 0 C-0.33 0.66 -0.66 1.32 -1 2 C-2.62542193 1.35522931 -4.25032424 0.70914857 -5.875 0.0625 C-6.77992187 -0.29714844 -7.68484375 -0.65679687 -8.6171875 -1.02734375 C-11 -2 -11 -2 -13 -3 C-16.59877757 -3.2412158 -20.20653788 -3.18519881 -23.8125 -3.1875 C-24.81087891 -3.19974609 -25.80925781 -3.21199219 -26.83789062 -3.22460938 C-27.80533203 -3.22654297 -28.77277344 -3.22847656 -29.76953125 -3.23046875 C-31.09368042 -3.23663208 -31.09368042 -3.23663208 -32.44458008 -3.24291992 C-35.30682169 -2.97083333 -37.42954423 -2.27694696 -40 -1 C-40.33 -0.34 -40.66 0.32 -41 1 C-42.71656455 1.95731485 -44.43338797 2.914173 -46.15234375 3.8671875 C-49.83917364 6.12761175 -52.46919539 8.65737657 -54.0625 12.6875 C-55 15 -55 15 -57.125 16.3125 C-58.053125 16.6528125 -58.053125 16.6528125 -59 17 C-58.938125 18.175625 -58.938125 18.175625 -58.875 19.375 C-59 22 -59 22 -61 24 C-61.37135915 26.52037964 -61.37135915 26.52037964 -61.4140625 29.4453125 C-61.45273437 30.52167969 -61.49140625 31.59804687 -61.53125 32.70703125 C-61.5621875 33.83496094 -61.593125 34.96289062 -61.625 36.125 C-61.66367187 37.26066406 -61.70234375 38.39632812 -61.7421875 39.56640625 C-61.83667601 42.37743956 -61.92223541 45.18846233 -62 48 C-61.34 48 -60.68 48 -60 48 C-59.67 49.65 -59.34 51.3 -59 53 C-58.34 53 -57.68 53 -57 53 C-57 54.32 -57 55.64 -57 57 C-56.01 57 -55.02 57 -54 57 C-52.35 59.97 -50.7 62.94 -49 66 C-53.85714286 63.57142857 -53.85714286 63.57142857 -56 61 C-56 60.34 -56 59.68 -56 59 C-56.66 59 -57.32 59 -58 59 C-59.21875 57.49609375 -59.21875 57.49609375 -60.5 55.4375 C-60.9228125 54.77621094 -61.345625 54.11492187 -61.78125 53.43359375 C-66.61596985 43.77964996 -66.80250776 30.22900632 -63.5 20 C-61.06046263 14.3399223 -57.3554618 9.3460344 -53 5 C-52.34 5 -51.68 5 -51 5 C-51 4.34 -51 3.68 -51 3 C-48.4385343 0.70351351 -47.52032428 0 -44 0 C-44 -0.66 -44 -1.32 -44 -2 C-29.43903953 -8.83473655 -14.08881551 -6.86121985 0 0 Z " fill="#868A8B" transform="translate(116,49)"/>
	<path d="M0 0 C3.36179774 1.44077046 5.59156268 3.24750021 8 6 C8 6.66 8 7.32 8 8 C8.66 8 9.32 8 10 8 C10.79550392 9.39365 11.58621838 10.79003431 12.375 12.1875 C12.81585938 12.96480469 13.25671875 13.74210937 13.7109375 14.54296875 C18.31484952 23.31830409 19.00505659 34.5356143 16.41699219 44.17041016 C13.36955175 52.32988148 7.99841504 61.44761785 0.0625 65.5 C-0.618125 65.665 -1.29875 65.83 -2 66 C-2 66.66 -2 67.32 -2 68 C-12.12726983 73.7634869 -22.57679492 74.51637589 -34 73 C-39.58627794 71.4573933 -44.19832922 69.20111385 -49 66 C-48.505 65.01 -48.505 65.01 -48 64 C-46.35 64.33 -44.7 64.66 -43 65 C-43 65.66 -43 66.32 -43 67 C-41.948125 67.144375 -40.89625 67.28875 -39.8125 67.4375 C-37.82020777 67.73144476 -35.82547188 68.04187396 -33.8671875 68.51171875 C-22.50608138 70.44651203 -10.76098464 70.54307761 -1 64 C-0.01 63.67 0.98 63.34 2 63 C3.05021103 61.15028304 3.05021103 61.15028304 4 59 C5.5 56.75 5.5 56.75 7 55 C7.66 55 8.32 55 9 55 C9.74542296 52.80845649 10.48048681 50.61454038 11.19921875 48.4140625 C11.82302873 46.53350364 12.49580229 44.66916228 13.1875 42.8125 C15.32962693 32.76098133 14.64743471 23.21556167 10 14 C8.0554473 11.17134072 8.0554473 11.17134072 6 9 C4.98812105 7.34051852 3.9873454 5.67419438 3 4 C2.01755155 2.65368175 1.02323436 1.31558703 0 0 Z " fill="#A3A7A7" transform="translate(116,51)"/>
	<path d="M0 0 C3.375 1.1875 3.375 1.1875 6 3 C6.875 5.6875 6.875 5.6875 7 8 C7.66 8 8.32 8 9 8 C9 15.59 9 23.18 9 31 C6.69 31 4.38 31 2 31 C1.98541748 30.34926514 1.97083496 29.69853027 1.95581055 29.02807617 C1.88135451 26.08061694 1.78468734 23.13429358 1.6875 20.1875 C1.66494141 19.16333984 1.64238281 18.13917969 1.61914062 17.08398438 C1.58369141 16.10107422 1.54824219 15.11816406 1.51171875 14.10546875 C1.48553467 13.19949951 1.45935059 12.29353027 1.43237305 11.36010742 C0.91861086 8.55573755 0.29610658 7.65450371 -2 6 C-5.61023099 5.26958147 -5.61023099 5.26958147 -9 5 C-9.33 4.01 -9.66 3.02 -10 2 C-6.25816125 -0.49455917 -4.43756964 -0.37606522 0 0 Z " fill="#22292D" transform="translate(277,68)"/>
	<path d="M0 0 C2.375 -0.125 2.375 -0.125 5 0 C7 2 7 2 7.24291992 4.77807617 C7.23881104 5.93799072 7.23470215 7.09790527 7.23046875 8.29296875 C7.22853516 9.56333984 7.22660156 10.83371094 7.22460938 12.14257812 C7.21530396 13.13946655 7.21530396 13.13946655 7.20581055 14.15649414 C7.18772807 16.162202 7.18652962 18.168039 7.18554688 20.17382812 C7.15802907 26.23080227 6.95691513 32.00794543 6 38 C1.83861737 38.08159574 -1.9472484 37.98248524 -6 37 C-6 37.66 -6 38.32 -6 39 C-14.92372857 39.57122018 -21.7263171 39.60821345 -29 34 C-29.66 33.34 -30.32 32.68 -31 32 C-31 30.68 -31 29.36 -31 28 C-31.66 28 -32.32 28 -33 28 C-33.08076963 25.54101345 -33.14037143 23.08466258 -33.1875 20.625 C-33.21263672 19.92632812 -33.23777344 19.22765625 -33.26367188 18.5078125 C-33.29296875 16.4765625 -33.29296875 16.4765625 -33 13 C-32.01 12.34 -31.02 11.68 -30 11 C-30.165 11.66 -30.33 12.32 -30.5 13 C-31.73332794 20.39996761 -31.40948757 25.80473865 -27 32 C-23.07328503 35.56143916 -19.47326072 36.70694938 -14.30859375 37.125 C-11.79177809 36.98872572 -10.00575955 36.40452074 -7.6875 35.4375 C-4 34 -4 34 -1.75 34.8125 C-1.1725 35.204375 -0.595 35.59625 0 36 C1.32 36 2.64 36 4 36 C4.33 25.11 4.66 14.22 5 3 C3.35 3.33 1.7 3.66 0 4 C-0.33 4.66 -0.66 5.32 -1 6 C-6.75 6.125 -6.75 6.125 -9 5 C-9 4.34 -9 3.68 -9 3 C-6.69 3.33 -4.38 3.66 -2 4 C-2 3.34 -2 2.68 -2 2 C-1.34 2 -0.68 2 0 2 C0 1.34 0 0.68 0 0 Z " fill="#A6A9AA" transform="translate(103,64)"/>
	<path d="M0 0 C2 2.0625 2 2.0625 3 5 C1.91642659 8.99567694 1.1973497 11.29387069 -2.4375 13.4375 C-5 14 -5 14 -9 14 C-9.02505615 14.59538574 -9.0501123 15.19077148 -9.07592773 15.80419922 C-9.19177494 18.49469136 -9.31455196 21.1848234 -9.4375 23.875 C-9.47681641 24.81214844 -9.51613281 25.74929687 -9.55664062 26.71484375 C-9.59853516 27.61074219 -9.64042969 28.50664063 -9.68359375 29.4296875 C-9.73858032 30.67081299 -9.73858032 30.67081299 -9.79467773 31.93701172 C-10 34 -10 34 -11 36 C-15.47254497 37.49084832 -19.52745503 37.49084832 -24 36 C-24.0246519 31.17619198 -24.04283693 26.35242033 -24.05493164 21.52856445 C-24.05997174 19.88630536 -24.06680378 18.24405077 -24.07543945 16.60180664 C-24.08751926 14.24624521 -24.09323139 11.89074291 -24.09765625 9.53515625 C-24.10281754 8.79660904 -24.10797882 8.05806183 -24.11329651 7.2971344 C-24.1134925 5.53101912 -24.06194719 3.76502854 -24 2 C-23 1 -23 1 -20.63671875 0.90234375 C-19.66347656 0.91394531 -18.69023437 0.92554687 -17.6875 0.9375 C-16.72199219 0.94652344 -15.75648438 0.95554687 -14.76171875 0.96484375 C-13.85035156 0.97644531 -12.93898438 0.98804687 -12 1 C-7.74592091 1 -4.21259745 -0.63188962 0 0 Z M-21 2 C-22.48679725 4.97359449 -22.11112605 7.66299179 -22.09765625 10.9765625 C-22.0962413 11.66181 -22.09482635 12.3470575 -22.09336853 13.05307007 C-22.08776675 15.24375761 -22.07521406 17.4343433 -22.0625 19.625 C-22.05748522 21.10937352 -22.05292228 22.59374865 -22.04882812 24.078125 C-22.03779677 27.71878315 -22.02053099 31.35938164 -22 35 C-18.7 35 -15.4 35 -12 35 C-11.93941406 33.65164062 -11.87882812 32.30328125 -11.81640625 30.9140625 C-11.73200578 29.1510304 -11.64735753 27.38801016 -11.5625 25.625 C-11.52318359 24.73554687 -11.48386719 23.84609375 -11.44335938 22.9296875 C-11.40146484 22.07890625 -11.35957031 21.228125 -11.31640625 20.3515625 C-11.27974854 19.56604004 -11.24309082 18.78051758 -11.20532227 17.97119141 C-11 16 -11 16 -10 14 C-7.71484375 12.9296875 -7.71484375 12.9296875 -4.9375 11.875 C-4.01839844 11.52179688 -3.09929687 11.16859375 -2.15234375 10.8046875 C-1.44207031 10.53914063 -0.73179687 10.27359375 0 10 C0 7.36 0 4.72 0 2 C-5.02254631 1.7045561 -7.89542386 2.01485372 -12 5 C-12.33 4.01 -12.66 3.02 -13 2 C-15.64 2 -18.28 2 -21 2 Z " fill="#AEB0B1" transform="translate(359,65)"/>
	<path d="M0 0 C2.3828125 -0.29296875 2.3828125 -0.29296875 5.125 -0.1875 C6.03507813 -0.16042969 6.94515625 -0.13335937 7.8828125 -0.10546875 C8.58148438 -0.07066406 9.28015625 -0.03585938 10 0 C9.67 0.66 9.34 1.32 9 2 C6.36 1.67 3.72 1.34 1 1 C0.67 11.89 0.34 22.78 0 34 C3.3 34 6.6 34 10 34 C10 26.74 10 19.48 10 12 C10.66 12 11.32 12 12 12 C12 11.34 12 10.68 12 10 C13.47906892 9.97310784 14.95827483 9.95365379 16.4375 9.9375 C17.26121094 9.92589844 18.08492187 9.91429688 18.93359375 9.90234375 C21 10 21 10 22 11 C22.08713831 12.70772358 22.10700007 14.41898649 22.09765625 16.12890625 C22.09443359 17.16337891 22.09121094 18.19785156 22.08789062 19.26367188 C22.07951172 20.35228516 22.07113281 21.44089844 22.0625 22.5625 C22.05798828 23.65498047 22.05347656 24.74746094 22.04882812 25.87304688 C22.0369984 28.58205432 22.01906231 31.2910338 22 34 C25.63 34 29.26 34 33 34 C31 36 31 36 27.5625 36.1875 C24 36 24 36 21 35 C20.505 23.615 20.505 23.615 20 12 C18.02 12 16.04 12 14 12 C13.08991777 14.73024668 12.82951265 16.58431254 12.71875 19.4140625 C12.68136719 20.25710937 12.64398438 21.10015625 12.60546875 21.96875 C12.53484654 23.74738356 12.46453674 25.52602956 12.39453125 27.3046875 C12.35714844 28.14515625 12.31976563 28.985625 12.28125 29.8515625 C12.23581055 31.00906006 12.23581055 31.00906006 12.18945312 32.18994141 C12 34 12 34 11 35 C9.00200428 35.09873816 7.00042842 35.12971799 5 35.125 C3.906875 35.12757812 2.81375 35.13015625 1.6875 35.1328125 C-1 35 -1 35 -2 34 C-2.21860439 29.61835974 -2.18579078 25.23126872 -2.18530273 20.84472656 C-2.18748408 18.64107816 -2.20562168 16.43793438 -2.22460938 14.234375 C-2.22754428 12.83593922 -2.22952843 11.43750105 -2.23046875 10.0390625 C-2.23457764 8.76240723 -2.23868652 7.48575195 -2.24291992 6.17041016 C-2 3 -2 3 0 0 Z " fill="#AEB1B2" transform="translate(211,66)"/>
	<path d="M0 0 C3.32920557 0.56667329 4.71584456 0.94921042 6.9375 3.5 C8 6.875 8 6.875 7.9375 10.5 C5.53071321 13.92784786 4.07912899 15.28594456 -0.0625 16.0625 C-3.83222041 15.35567742 -5.50523427 14.35812053 -8.0625 11.5 C-8.6875 8.5625 -8.6875 8.5625 -8.0625 5.5 C-5.57165752 2.13003665 -4.17661135 0.68189573 0 0 Z " fill="#373F45" transform="translate(197.0625,48.5)"/>
	<path d="M0 0 C2.64 0 5.28 0 8 0 C8.33 0.99 8.66 1.98 9 3 C9.680625 2.505 10.36125 2.01 11.0625 1.5 C14.59465009 -0.30365111 17.08636991 -0.23021353 21 0 C21 2.64 21 5.28 21 8 C20.28972656 8.26554687 19.57945312 8.53109375 18.84765625 8.8046875 C17.92855469 9.15789062 17.00945312 9.51109375 16.0625 9.875 C14.68771484 10.39707031 14.68771484 10.39707031 13.28515625 10.9296875 C10.85058944 11.7819086 10.85058944 11.7819086 10 14 C9.84932786 15.4465242 9.75138964 16.8987934 9.68359375 18.3515625 C9.64169922 19.20234375 9.59980469 20.053125 9.55664062 20.9296875 C9.51732422 21.81914063 9.47800781 22.70859375 9.4375 23.625 C9.39431641 24.5221875 9.35113281 25.419375 9.30664062 26.34375 C9.20043285 28.56231239 9.09970041 30.78113565 9 33 C5.7 33 2.4 33 -1 33 C-1 22.77 -1 12.54 -1 2 C-0.67 2 -0.34 2 0 2 C0 11.9 0 21.8 0 32 C2.64 32 5.28 32 8 32 C8 25.07 8 18.14 8 11 C8.99 10.67 9.98 10.34 11 10 C11.73323796 7.98491642 11.73323796 7.98491642 12 6 C10.68 5.67 9.36 5.34 8 5 C8 4.01 8 3.02 8 2 C5.36 1.67 2.72 1.34 0 1 C0 0.67 0 0.34 0 0 Z " fill="#363C3E" transform="translate(338,67)"/>
	<path d="M0 0 C2.36092149 2.36092149 2.31949234 2.96250484 2.375 6.1875 C2.24377253 10.98888158 1.1750684 14.36327477 -2 18 C-6.90120343 21.82293868 -10.51830909 22.43278253 -16.66796875 22.3359375 C-19.1416145 21.97959992 -20.84476223 21.23864239 -23 20 C-23 19.34 -23 18.68 -23 18 C-23.66 18 -24.32 18 -25 18 C-25 17.34 -25 16.68 -25 16 C-24.34 15.67 -23.68 15.34 -23 15 C-23.33 13.02 -23.66 11.04 -24 9 C-22 11 -22 11 -21 14 C-17.54252263 16.52661808 -14.15008872 16.50966002 -10 16 C-7.14515489 13.72889272 -7.14515489 13.72889272 -5 11 C-4.34 10.34 -3.68 9.68 -3 9 C-3 10.32 -3 11.64 -3 13 C-2.34 13.33 -1.68 13.66 -1 14 C-0.67 9.38 -0.34 4.76 0 0 Z " fill="#BCBCBC" transform="translate(560,78)"/>
	<path d="M0 0 C2.69797258 1.99415365 3.02681526 3.12513789 3.75 6.5 C4 10 4 10 3 13 C0.45017567 14.27491216 -1.16465424 14.02596616 -4.0078125 13.87890625 C-4.99394531 13.83056641 -5.98007812 13.78222656 -6.99609375 13.73242188 C-8.54490234 13.64831055 -8.54490234 13.64831055 -10.125 13.5625 C-11.16527344 13.51029297 -12.20554687 13.45808594 -13.27734375 13.40429688 C-15.85185116 13.27439054 -18.42599296 13.13941748 -21 13 C-20.24849977 16.27773504 -20.24849977 16.27773504 -17 18 C-14.27716095 18.31254378 -11.75557514 18.13333428 -9 18 C-8.67 17.67 -8.34 17.34 -8 17 C-5.32941149 16.85884839 -2.67567762 16.95752893 0 17 C0.75 19.1875 0.75 19.1875 1 22 C-1.36406569 26.31698952 -4.32776116 28.09291182 -8.8671875 29.55859375 C-15.63658665 30.95958661 -23.11803686 28.32508637 -29 25 C-29.33 24.01 -29.66 23.02 -30 22 C-25.24357542 23.84972067 -25.24357542 23.84972067 -23.296875 25.05078125 C-20.00082557 26.41292413 -17.05202063 26.30201175 -13.5 26.3125 C-11.53546875 26.33763672 -11.53546875 26.33763672 -9.53125 26.36328125 C-5.90376801 25.99010003 -4.489436 25.60035147 -2 23 C-1.1957792 20.40144267 -1.1957792 20.40144267 -1 18 C-1.928125 18.33 -2.85625 18.66 -3.8125 19 C-8.72189297 20.39551252 -13.95059421 20.74776232 -19 20 C-20.828125 18.79296875 -20.828125 18.79296875 -22 17 C-22 15.35 -22 13.7 -22 12 C-14.08 12 -6.16 12 2 12 C1.41804665 7.92632656 0.84893516 4.0021229 0 0 Z " fill="#B4B6B6" transform="translate(486,73)"/>
	<path d="M0 0 C3.67829243 1.83914622 5.61878665 3.46391872 8 6.8125 C9.29035352 10.92550185 8.68916281 13.08421349 7 17 C6.01 17.33 5.02 17.66 4 18 C4 18.66 4 19.32 4 20 C0.92859569 21.81205858 -1.02777299 22.22518386 -4.5625 21.8125 C-5.32691406 21.73644531 -6.09132813 21.66039063 -6.87890625 21.58203125 C-10.60667581 20.55912579 -11.90835129 18.13747307 -14 15 C-14.48692434 10.69883501 -14.28241006 8.51612874 -12.1875 4.6875 C-8.41393311 0.05140353 -5.84123066 -0.59402346 0 0 Z M-11 5 C-12.16168968 11.1096145 -12.16168968 11.1096145 -10.6875 17 C-8.35870771 19.76005013 -7.38507651 19.95556809 -3.75 20.375 C1.13275687 19.88672431 2.85859952 18.75435667 6 15 C6.48731247 11.93249623 6.36193496 9.07644715 6 6 C4.68 6 3.36 6 2 6 C2 5.34 2 4.68 2 4 C0.39592672 3.97291433 -1.2082785 3.95356517 -2.8125 3.9375 C-3.70582031 3.92589844 -4.59914063 3.91429688 -5.51953125 3.90234375 C-8.13413791 3.88990033 -8.13413791 3.88990033 -11 5 Z " fill="#B4B6B7" transform="translate(93,73)"/>
	<path d="M0 0 C0.78246094 -0.02578125 1.56492187 -0.0515625 2.37109375 -0.078125 C4.5625 0.25 4.5625 0.25 6.3125 1.3203125 C8.20945256 4.24873302 8.01522825 6.92604249 8.125 10.375 C8.20243852 12.66999602 8.33169539 14.96532656 8.5625 17.25 C9.2225 17.58 9.8825 17.91 10.5625 18.25 C8.9125 18.58 7.2625 18.91 5.5625 19.25 C5.2325 13.64 4.9025 8.03 4.5625 2.25 C1.2625 2.25 -2.0375 2.25 -5.4375 2.25 C-5.4375 18.42 -5.4375 34.59 -5.4375 51.25 C-6.0975 50.92 -6.7575 50.59 -7.4375 50.25 C-7.46282428 43.75383332 -7.48035601 37.25767934 -7.49243164 30.76147461 C-7.497465 28.55085779 -7.50429217 26.34024431 -7.51293945 24.12963867 C-7.52504859 20.954907 -7.53073825 17.78021928 -7.53515625 14.60546875 C-7.54289818 13.11940376 -7.54289818 13.11940376 -7.55079651 11.60331726 C-7.55087204 10.68258926 -7.55094757 9.76186127 -7.55102539 8.81323242 C-7.553246 8.0027092 -7.55546661 7.19218597 -7.55775452 6.35710144 C-7.4375 4.25 -7.4375 4.25 -6.4375 1.25 C-4.11063547 0.08656773 -2.59028587 0.05104012 0 0 Z " fill="#CBCECE" transform="translate(416.4375,48.75)"/>
	<path d="M0 0 C0 0.66 0 1.32 0 2 C0.66 2 1.32 2 2 2 C5.26551788 6.07201382 5.3745163 9.80142208 5.1875 14.8125 C5.16719727 15.85180664 5.16719727 15.85180664 5.14648438 16.91210938 C5.11138845 18.60841265 5.05758943 20.30431136 5 22 C4.01 22.495 4.01 22.495 3 23 C3.33 18.05 3.66 13.1 4 8 C3.34 8 2.68 8 2 8 C-0.625 5.625 -0.625 5.625 -3 3 C-3 2.34 -3 1.68 -3 1 C-5.475 0.505 -5.475 0.505 -8 0 C-8 -0.66 -8 -1.32 -8 -2 C-16.02371097 -1.86545607 -22.91648459 -1.70914524 -29 4 C-33.14510015 9.31090957 -32.28055576 15.57839038 -32 22 C-32.66 21.67 -33.32 21.34 -34 21 C-34.93493027 15.98537403 -35.13112344 12.02721527 -34 7 C-33.34 7 -32.68 7 -32 7 C-31.89945312 6.40445313 -31.79890625 5.80890625 -31.6953125 5.1953125 C-30.46036443 1.29620679 -27.29895118 -0.77009264 -24 -3 C-14.48086438 -6.67405234 -8.62203935 -4.31101968 0 0 Z " fill="#A8ACAC" transform="translate(326,69)"/>
	<path d="M0 0 C3.3 0 6.6 0 10 0 C9.67 0.66 9.34 1.32 9 2 C6.36 1.67 3.72 1.34 1 1 C1 16.51 1 32.02 1 48 C3.64 48 6.28 48 9 48 C8.98952637 47.34402832 8.97905273 46.68805664 8.96826172 46.01220703 C8.92677497 43.04984342 8.90069738 40.08754084 8.875 37.125 C8.85824219 36.09246094 8.84148437 35.05992188 8.82421875 33.99609375 C8.81777344 33.00996094 8.81132812 32.02382812 8.8046875 31.0078125 C8.79421387 30.09660645 8.78374023 29.18540039 8.77294922 28.24658203 C9 26 9 26 11 24 C13.125 24.375 13.125 24.375 15 25 C14.01 25 13.02 25 12 25 C11.97494385 25.69150146 11.9498877 26.38300293 11.92407227 27.09545898 C11.80847839 30.20967866 11.68558758 33.32356789 11.5625 36.4375 C11.52318359 37.52611328 11.48386719 38.61472656 11.44335938 39.73632812 C11.40146484 40.77080078 11.35957031 41.80527344 11.31640625 42.87109375 C11.26141968 44.30859985 11.26141968 44.30859985 11.20532227 45.77514648 C11 48 11 48 10 49 C6.7 49 3.4 49 0 49 C0 32.83 0 16.66 0 0 Z " fill="#757B7D" transform="translate(411,51)"/>
	<path d="M0 0 C0.33 0.66 0.66 1.32 1 2 C-0.65 2.33 -2.3 2.66 -4 3 C-3.34 3.66 -2.68 4.32 -2 5 C-3.11375 5.2475 -4.2275 5.495 -5.375 5.75 C-8.98099567 6.58683142 -8.98099567 6.58683142 -10.20068359 8.78027344 C-11.07612969 11.21141451 -11.31486561 13.18650587 -11.4140625 15.765625 C-11.45273437 16.65507813 -11.49140625 17.54453125 -11.53125 18.4609375 C-11.5621875 19.38132812 -11.593125 20.30171875 -11.625 21.25 C-11.68300781 22.65378906 -11.68300781 22.65378906 -11.7421875 24.0859375 C-11.83624844 26.39043054 -11.92189399 28.69492013 -12 31 C-13.65 31 -15.3 31 -17 31 C-17.33 23.74 -17.66 16.48 -18 9 C-17.34 9 -16.68 9 -16 9 C-16 15.93 -16 22.86 -16 30 C-15.01 30 -14.02 30 -13 30 C-13.00523682 29.42032471 -13.01047363 28.84064941 -13.01586914 28.2434082 C-13.03674334 25.5997833 -13.04969327 22.95617579 -13.0625 20.3125 C-13.07087891 19.40048828 -13.07925781 18.48847656 -13.08789062 17.54882812 C-13.09111328 16.66259766 -13.09433594 15.77636719 -13.09765625 14.86328125 C-13.10289307 14.05157471 -13.10812988 13.23986816 -13.11352539 12.40356445 C-12.9929791 9.85135327 -12.559949 7.48973863 -12 5 C-13.98 5 -15.96 5 -18 5 C-18 4.01 -18 3.02 -18 2 C-17.34 2 -16.68 2 -16 2 C-16 2.66 -16 3.32 -16 4 C-15.5153125 3.71125 -15.030625 3.4225 -14.53125 3.125 C-9.37898353 0.27143703 -5.87035937 -0.41931138 0 0 Z " fill="#C8C9C9" transform="translate(604,69)"/>
	<path d="M0 0 C0.66 0.33 1.32 0.66 2 1 C2 8.92 2 16.84 2 25 C1.67 25 1.34 25 1 25 C0.505 13.615 0.505 13.615 0 2 C-6.4 2.2 -6.4 2.2 -8 4 C-8.15686249 5.55948542 -8.25076639 7.12542668 -8.31640625 8.69140625 C-8.35830078 9.63564453 -8.40019531 10.57988281 -8.44335938 11.55273438 C-8.48267578 12.54595703 -8.52199219 13.53917969 -8.5625 14.5625 C-8.60568359 15.55958984 -8.64886719 16.55667969 -8.69335938 17.58398438 C-8.79980298 20.0558415 -8.90181928 22.5278031 -9 25 C-13.85208538 26.80063225 -16.88907506 27.02218499 -22 26 C-22 25.67 -22 25.34 -22 25 C-18.7 24.67 -15.4 24.34 -12 24 C-11.93941406 22.59105469 -11.87882812 21.18210937 -11.81640625 19.73046875 C-11.73199509 17.88280224 -11.64734737 16.03514653 -11.5625 14.1875 C-11.52318359 13.25873047 -11.48386719 12.32996094 -11.44335938 11.37304688 C-11.40146484 10.48037109 -11.35957031 9.58769531 -11.31640625 8.66796875 C-11.27974854 7.84578857 -11.24309082 7.0236084 -11.20532227 6.17651367 C-11 4 -11 4 -10 1 C-6.49852959 -0.1671568 -3.67329964 -0.13357453 0 0 Z " fill="#B9BBBC" transform="translate(433,75)"/>
	<path d="M0 0 C0 4.62 0 9.24 0 14 C-5.13092955 16.05237182 -7.83530557 16.63548657 -13 15 C-15.5625 12.9375 -15.5625 12.9375 -17 10 C-17.21395191 6.34142227 -16.79421089 3.11911535 -14.625 0.0625 C-9.8762009 -3.04248403 -5.08816087 -1.69605362 0 0 Z M-12 1 C-12 1.66 -12 2.32 -12 3 C-12.66 3 -13.32 3 -14 3 C-14 5.97 -14 8.94 -14 12 C-13.34 12 -12.68 12 -12 12 C-12 12.66 -12 13.32 -12 14 C-6.82553224 14.40914759 -6.82553224 14.40914759 -2 13 C-0.36016121 9.72032242 -0.82154362 6.62861311 -1 3 C-1.66 3 -2.32 3 -3 3 C-3 2.34 -3 1.68 -3 1 C-7.53140653 0.06619039 -7.53140653 0.06619039 -12 1 Z " fill="#9A9B9D" transform="translate(319,76)"/>
	<path d="M0 0 C0.8971875 0.309375 0.8971875 0.309375 1.8125 0.625 C-0.1675 1.285 -2.1475 1.945 -4.1875 2.625 C-4.1875 4.275 -4.1875 5.925 -4.1875 7.625 C-2.50720703 7.59019531 -2.50720703 7.59019531 -0.79296875 7.5546875 C0.67968084 7.53592763 2.15233763 7.51772766 3.625 7.5 C4.36298828 7.48324219 5.10097656 7.46648437 5.86132812 7.44921875 C9.72496426 7.41425372 11.52153668 7.43102445 14.8125 9.625 C14.4825 10.945 14.1525 12.265 13.8125 13.625 C12.63494141 13.66367188 12.63494141 13.66367188 11.43359375 13.703125 C4.7210215 14.06552154 0.34426011 14.77681905 -5.1875 18.625 C-5.8475 18.955 -6.5075 19.285 -7.1875 19.625 C-5.98943269 15.89767947 -3.72556326 14.26668844 -0.33984375 12.44140625 C3.57960255 10.95471972 7.65489266 10.79230814 11.8125 10.625 C7.82643145 9.87761215 4.52554366 9.54361435 0.5 10.125 C-3.1875 10.625 -3.1875 10.625 -5.1875 9.625 C-6.13817299 6.34085695 -6.28852197 4.92806592 -5.1875 1.625 C-2.1875 -0.375 -2.1875 -0.375 0 0 Z " fill="#B6B8B9" transform="translate(156.1875,66.375)"/>
	<path d="M0 0 C3.07368133 2.04912089 3.75804894 2.68422501 5 6 C5.59195787 11.762884 5.62692346 17.74615308 3 23 C-0.55349996 27.24445829 -4.42268529 30.57205955 -10.08984375 31.25 C-12.25 31.3125 -12.25 31.3125 -16 31 C-16.66 30.34 -17.32 29.68 -18 29 C-17.11957031 28.87882812 -16.23914063 28.75765625 -15.33203125 28.6328125 C-13.58986328 28.38144531 -13.58986328 28.38144531 -11.8125 28.125 C-10.66394531 27.96257812 -9.51539063 27.80015625 -8.33203125 27.6328125 C-5.25156729 27.04777714 -2.74439965 26.51518957 0 25 C0.95218568 22.24382959 1.12823232 19.67692438 1.1328125 16.77734375 C1.13410156 15.99166016 1.13539063 15.20597656 1.13671875 14.39648438 C1.13091797 13.17928711 1.13091797 13.17928711 1.125 11.9375 C1.12886719 11.12216797 1.13273437 10.30683594 1.13671875 9.46679688 C1.13478516 8.29020508 1.13478516 8.29020508 1.1328125 7.08984375 C1.13168457 6.37691162 1.13055664 5.66397949 1.12939453 4.92944336 C1.06665285 2.77989196 1.06665285 2.77989196 0 0 Z " fill="#5E6566" transform="translate(399,72)"/>
	<path d="M0 0 C2.81077881 3.47213854 2.60879419 5.83858877 2.49609375 10.1875 C2.10783577 12.73774188 1.49200846 14.44557014 0.125 16.625 C-2.97548928 18.17524464 -5.45394218 17.91492015 -8.875 17.625 C-11.8125 16.25 -11.8125 16.25 -13.875 13.625 C-14.6613821 8.69372893 -14.70523753 3.89417984 -11.875 -0.375 C-7.38729382 -1.87090206 -4.32371992 -2.06786605 0 0 Z M-10.875 1.625 C-12.98604164 4.36935414 -12.86523867 5.73823145 -12.5625 9.25 C-12.05733562 12.4767308 -12.05733562 12.4767308 -10.875 14.625 C-8.12220222 16.07086908 -8.12220222 16.07086908 -4.875 16.625 C-1.93049106 15.31632936 -0.32798569 14.53097137 1.125 11.625 C1.59945325 6.59213307 1.59945325 6.59213307 -0.5625 2.1875 C-4.26327884 -0.31302625 -6.77139908 0.25713303 -10.875 1.625 Z " fill="#A2A5A6" transform="translate(389.875,75.375)"/>
	<path d="M0 0 C2.03833424 1.2739589 4.03852126 2.61061923 6 4 C6 4.66 6 5.32 6 6 C7.32 6 8.64 6 10 6 C10 6.66 10 7.32 10 8 C12.56364483 8.10845031 15.12266279 8.18749744 17.6875 8.25 C18.40873047 8.28351563 19.12996094 8.31703125 19.87304688 8.3515625 C23.71921456 8.42181214 25.5553411 8.2808372 28.89453125 6.171875 C31.13861858 3.9880154 31.13861858 3.9880154 33 1 C33.66 1 34.32 1 35 1 C32.92783387 5.8350543 30.12144065 8.709186 25.3125 10.8125 C19.10631734 12.90809414 13.53598671 11.92185742 7.6875 9.1875 C4.63975167 7.50850092 2.15571156 5.78446077 0 3 C0 2.01 0 1.02 0 0 Z " fill="#B4B6B7" transform="translate(294,91)"/>
	<path d="M0 0 C1.01351195 3.32558608 1.07181724 6.28481837 1 9.75 C0.95227877 14.6175652 1.26050886 19.19330762 2 24 C2.66 24 3.32 24 4 24 C4.33 25.65 4.66 27.3 5 29 C5.66 29 6.32 29 7 29 C7 30.32 7 31.64 7 33 C7.99 33 8.98 33 10 33 C11.65 35.97 13.3 38.94 15 42 C10.14285714 39.57142857 10.14285714 39.57142857 8 37 C8 36.34 8 35.68 8 35 C7.34 35 6.68 35 6 35 C4.78125 33.49609375 4.78125 33.49609375 3.5 31.4375 C3.0771875 30.77621094 2.654375 30.11492187 2.21875 29.43359375 C-0.88199242 23.24204718 -1.29228719 17.45454644 -1.1875 10.6875 C-1.18685547 9.87732422 -1.18621094 9.06714844 -1.18554688 8.23242188 C-1.1409552 2.2819104 -1.1409552 2.2819104 0 0 Z " fill="#A1A3A4" transform="translate(52,73)"/>
	<path d="M0 0 C6.0546875 -0.1953125 6.0546875 -0.1953125 8 0 C10 2 10 2 10.5 4.875 C10 8 10 8 7.375 10.375 C3.86465013 12.06516845 1.83246777 12.36499693 -2 12 C-2 11.01 -2 10.02 -2 9 C-2.66 9 -3.32 9 -4 9 C-3.67 6.69 -3.34 4.38 -3 2 C-2.01 2 -1.02 2 0 2 C0 1.34 0 0.68 0 0 Z M-1 3 C-1.33 4.98 -1.66 6.96 -2 9 C1.41656024 9.16677282 1.41656024 9.16677282 5 9 C5.66 8.34 6.32 7.68 7 7 C7 5.68 7 4.36 7 3 C4.36 3 1.72 3 -1 3 Z " fill="#737779" transform="translate(163,83)"/>
	<path d="M0 0 C3.32920557 0.56667329 4.71584456 0.94921042 6.9375 3.5 C8 6.875 8 6.875 7.9375 10.5 C5.53071321 13.92784786 4.07912899 15.28594456 -0.0625 16.0625 C-3.83222041 15.35567742 -5.50523427 14.35812053 -8.0625 11.5 C-8.6875 8.5625 -8.6875 8.5625 -8.0625 5.5 C-5.57165752 2.13003665 -4.17661135 0.68189573 0 0 Z M-5.0625 3.5 C-6.26238045 8.78199593 -6.26238045 8.78199593 -4.0625 13.5 C-2.160506 13.97558206 -2.160506 13.97558206 -0.0625 13.875 C0.989375 13.88660156 0.989375 13.88660156 2.0625 13.8984375 C4.34808594 13.640914 4.34808594 13.640914 5.9375 10.5 C5.85528291 7.42334973 5.85528291 7.42334973 4.9375 4.5 C1.1504335 1.975289 -0.79456496 2.07735499 -5.0625 3.5 Z " fill="#B1B3B5" transform="translate(197.0625,48.5)"/>
	<path d="M0 0 C0.33 0 0.66 0 1 0 C1 9.9 1 19.8 1 30 C3.64 30 6.28 30 9 30 C8.97905273 29.37955811 8.95810547 28.75911621 8.93652344 28.11987305 C8.85338594 25.30924682 8.80134939 22.49887904 8.75 19.6875 C8.71648437 18.71103516 8.68296875 17.73457031 8.6484375 16.72851562 C8.63554687 15.79072266 8.62265625 14.85292969 8.609375 13.88671875 C8.58842773 13.02264404 8.56748047 12.15856934 8.54589844 11.26831055 C9 9 9 9 10.82128906 7.20629883 C13.65809218 5.6356305 15.80947075 5.78246392 19 6 C16.61426621 7.89213369 14.92824652 9.02391783 12 10 C10.85345518 12.29308963 10.80270883 13.79909656 10.68359375 16.3515625 C10.64169922 17.20234375 10.59980469 18.053125 10.55664062 18.9296875 C10.51732422 19.81914063 10.47800781 20.70859375 10.4375 21.625 C10.39431641 22.5221875 10.35113281 23.419375 10.30664062 24.34375 C10.20043285 26.56231239 10.09970041 28.78113565 10 31 C6.7 31 3.4 31 0 31 C0 20.77 0 10.54 0 0 Z " fill="#53585A" transform="translate(337,69)"/>
	<path d="M0 0 C2.97 0.495 2.97 0.495 6 1 C6 1.66 6 2.32 6 3 C7.051875 3.144375 8.10375 3.28875 9.1875 3.4375 C11.19686393 3.73396353 13.20744885 4.04741688 15.1875 4.5 C19.04993586 5.18665526 22.89867392 5.36237981 26.8125 5.5625 C27.60076172 5.60568359 28.38902344 5.64886719 29.20117188 5.69335938 C31.13394215 5.79878321 33.06695026 5.89983094 35 6 C29.78527083 9.19449511 23.89810215 8.2084135 18 8 C17.16339844 7.98195313 16.32679687 7.96390625 15.46484375 7.9453125 C9.42148775 7.58292431 5.04923709 5.23485402 0 2 C0 1.34 0 0.68 0 0 Z " fill="#5D6364" transform="translate(67,115)"/>
	<path d="M0 0 C1.83629938 1.21741356 3.26340006 2.55900499 4.76171875 4.16796875 C4.43171875 4.82796875 4.10171875 5.48796875 3.76171875 6.16796875 C2.97796875 5.52859375 2.19421875 4.88921875 1.38671875 4.23046875 C-2.64315952 1.06413583 -4.93640499 0.95722074 -10.05078125 0.85546875 C-11.27410156 0.81808594 -12.49742187 0.78070313 -13.7578125 0.7421875 C-17.82460121 1.23969588 -19.27871838 2.43167115 -22.23828125 5.16796875 C-25.05078125 6.41796875 -25.05078125 6.41796875 -27.23828125 7.16796875 C-27.23828125 6.17796875 -27.23828125 5.18796875 -27.23828125 4.16796875 C-19.54833088 -3.49923029 -9.41550561 -4.98467944 0 0 Z " fill="#A5A8A8" transform="translate(481.23828125,66.83203125)"/>
	<path d="M0 0 C2.69797258 1.99415365 3.02681526 3.12513789 3.75 6.5 C4 10 4 10 3 13 C0.45017567 14.27491216 -1.16465424 14.02596616 -4.0078125 13.87890625 C-4.99394531 13.83056641 -5.98007812 13.78222656 -6.99609375 13.73242188 C-8.54490234 13.64831055 -8.54490234 13.64831055 -10.125 13.5625 C-11.16527344 13.51029297 -12.20554687 13.45808594 -13.27734375 13.40429688 C-15.85185116 13.27439054 -18.42599296 13.13941748 -21 13 C-20.24849977 16.27773504 -20.24849977 16.27773504 -17 18 C-14.72087062 18.45394552 -14.72087062 18.45394552 -12.3125 18.625 C-11.50425781 18.69976562 -10.69601562 18.77453125 -9.86328125 18.8515625 C-9.24839844 18.90054688 -8.63351562 18.94953125 -8 19 C-8 19.33 -8 19.66 -8 20 C-9.77007714 20.08114106 -11.54122098 20.13925505 -13.3125 20.1875 C-14.29863281 20.22230469 -15.28476562 20.25710937 -16.30078125 20.29296875 C-19 20 -19 20 -20.85546875 18.80078125 C-22 17 -22 17 -22 12 C-14.08 12 -6.16 12 2 12 C1.41804665 7.92632656 0.84893516 4.0021229 0 0 Z " fill="#A6A8AA" transform="translate(486,73)"/>
	<path d="M0 0 C-0.33 0.66 -0.66 1.32 -1 2 C-2.62542193 1.35522931 -4.25032424 0.70914857 -5.875 0.0625 C-6.77992187 -0.29714844 -7.68484375 -0.65679687 -8.6171875 -1.02734375 C-11 -2 -11 -2 -13 -3 C-16.51456146 -3.26919004 -20.03879565 -3.23168315 -23.5625 -3.25 C-24.52736328 -3.270625 -25.49222656 -3.29125 -26.48632812 -3.3125 C-32.87716532 -3.34702174 -38.08761644 -2.44345351 -44 0 C-44 -0.66 -44 -1.32 -44 -2 C-29.43903953 -8.83473655 -14.08881551 -6.86121985 0 0 Z " fill="#B4B7B8" transform="translate(116,49)"/>
	<path d="M0 0 C2.27492349 3.41238523 2.19555565 4.36044265 1.9765625 8.32421875 C1.925 9.35224609 1.8734375 10.38027344 1.8203125 11.43945312 C1.75585938 12.51130859 1.69140625 13.58316406 1.625 14.6875 C1.56828125 15.77095703 1.5115625 16.85441406 1.453125 17.97070312 C1.31160446 20.64780007 1.16018849 23.32396576 1 26 C0.67 26 0.34 26 0 26 C-0.01981934 25.44538086 -0.03963867 24.89076172 -0.06005859 24.31933594 C-0.15557651 21.79576307 -0.26514567 19.27298776 -0.375 16.75 C-0.4059375 15.87730469 -0.436875 15.00460938 -0.46875 14.10546875 C-0.50742187 13.26113281 -0.54609375 12.41679688 -0.5859375 11.546875 C-0.6173584 10.77182617 -0.6487793 9.99677734 -0.68115234 9.19824219 C-1.03787836 6.73885397 -1.6491827 5.08425074 -3 3 C-5.64787088 2.29626983 -5.64787088 2.29626983 -8.625 2.25 C-10.12933594 2.16492188 -10.12933594 2.16492188 -11.6640625 2.078125 C-12.43492187 2.05234375 -13.20578125 2.0265625 -14 2 C-14 1.67 -14 1.34 -14 1 C-9.21996348 0.0439927 -4.8527811 -0.32351874 0 0 Z " fill="#939494" transform="translate(608,71)"/>
	<path d="M0 0 C2.375 -0.125 2.375 -0.125 5 0 C7 2 7 2 7.22705078 4.88916016 C7.21657715 6.09362793 7.20610352 7.2980957 7.1953125 8.5390625 C7.18886719 9.84101562 7.18242188 11.14296875 7.17578125 12.484375 C7.15906929 13.86458595 7.14213939 15.24479429 7.125 16.625 C7.11497006 18.01301452 7.10584423 19.40103589 7.09765625 20.7890625 C7.07401863 24.19288026 7.04106867 27.59635506 7 31 C6.67 31 6.34 31 6 31 C6 21.76 6 12.52 6 3 C4.02 3.33 2.04 3.66 0 4 C-0.33 4.66 -0.66 5.32 -1 6 C-6.75 6.125 -6.75 6.125 -9 5 C-9 4.34 -9 3.68 -9 3 C-6.69 3.33 -4.38 3.66 -2 4 C-2 3.34 -2 2.68 -2 2 C-1.34 2 -0.68 2 0 2 C0 1.34 0 0.68 0 0 Z " fill="#86898A" transform="translate(103,64)"/>
	<path d="M0 0 C0.99 -0.66 1.98 -1.32 3 -2 C8.25512513 -3.10446698 13.17155748 -3.73611743 18 -1 C15.50900109 0.24549946 13.95792263 -0.00039329 11.1875 -0.125 C6.85873837 -0.18737409 4.56227606 0.40925378 1 3 C0.01 3 -0.98 3 -2 3 C-2.44601563 2.51015625 -2.89203125 2.0203125 -3.3515625 1.515625 C-5.67770404 -0.6231023 -7.26765321 -0.33513279 -10.375 -0.25 C-11.77878906 -0.22679688 -11.77878906 -0.22679688 -13.2109375 -0.203125 C-15.88458912 -0.00840527 -18.3875919 0.41102072 -21 1 C-15.13248742 -4.1904919 -6.42883305 -4.2858887 0 0 Z " fill="#ABAEAF" transform="translate(242,68)"/>
	<path d="M0 0 C0.66 0.33 1.32 0.66 2 1 C2 1.99 2 2.98 2 4 C2.33 4.99 2.66 5.98 3 7 C2.87890625 9.26171875 2.87890625 9.26171875 2.5625 11.6875 C2.46066406 12.49574219 2.35882813 13.30398437 2.25390625 14.13671875 C2.17011719 14.75160156 2.08632813 15.36648437 2 16 C1.34 15.67 0.68 15.34 0 15 C-0.625 12.4375 -0.625 12.4375 -1 10 C-1 12.97 -1 15.94 -1 19 C-4.43082312 15.56917688 -4.43082312 15.56917688 -4.4375 11.75 C-4.3015763 6.86474216 -2.72008667 3.99512729 0 0 Z " fill="#B7B9B8" transform="translate(505,73)"/>
	<path d="M0 0 C1.43655854 -0.08131463 2.8744483 -0.13933559 4.3125 -0.1875 C5.51326172 -0.23970703 5.51326172 -0.23970703 6.73828125 -0.29296875 C9 0 9 0 10.7578125 1.06640625 C12.64189279 3.99917274 12.45280983 6.6786055 12.5625 10.125 C12.63993852 12.41999602 12.76919539 14.71532656 13 17 C13.66 17.33 14.32 17.66 15 18 C13.35 18.33 11.7 18.66 10 19 C9.67 13.39 9.34 7.78 9 2 C6.03 2 3.06 2 0 2 C0 1.34 0 0.68 0 0 Z " fill="#BDC0C2" transform="translate(412,49)"/>
	<path d="M0 0 C0.5625 1.9375 0.5625 1.9375 1 4 C0.67 4.33 0.34 4.66 0 5 C-0.09968672 7.10221693 -0.12968203 9.20792604 -0.125 11.3125 C-0.12757813 12.46363281 -0.13015625 13.61476563 -0.1328125 14.80078125 C-0.02438878 17.41251737 0.22940262 19.52307984 1 22 C-2.00198683 19.74850988 -3.73648543 18.41403798 -4.4375 14.65234375 C-4.56484412 9.37552165 -3.90861529 5.53743985 -1 1 C-0.67 0.67 -0.34 0.34 0 0 Z " fill="#4C5153" transform="translate(297,72)"/>
	<path d="M0 0 C1.9375 1.1875 1.9375 1.1875 2.9375 4.1875 C1.9475 4.1875 0.9575 4.1875 -0.0625 4.1875 C-0.0625 3.5275 -0.0625 2.8675 -0.0625 2.1875 C-2.45864575 2.32915893 -4.85432897 2.47568841 -7.25 2.625 C-7.92353516 2.66431641 -8.59707031 2.70363281 -9.29101562 2.74414062 C-12.95949102 2.97677565 -16.47944206 3.35957011 -20.0625 4.1875 C-19.7325 3.5275 -19.4025 2.8675 -19.0625 2.1875 C-18.0725 2.1875 -17.0825 2.1875 -16.0625 2.1875 C-16.0625 1.5275 -16.0625 0.8675 -16.0625 0.1875 C-10.86072727 -1.54642424 -5.28231071 -1.40142937 0 0 Z " fill="#939898" transform="translate(174.0625,64.8125)"/>
	<path d="M0 0 C1.46484375 1.26953125 2.9296875 2.5390625 4.39453125 3.80859375 C7.30983218 5.97201658 10.00009578 6.13666635 13.5 6.125 C14.2734375 6.12757812 15.046875 6.13015625 15.84375 6.1328125 C18.18447017 6.08145813 18.18447017 6.08145813 21 5 C21 4.34 21 3.68 21 3 C19.68 2.67 18.36 2.34 17 2 C20 0 20 0 24 0 C23.68320813 2.93032479 23.4689561 4.54518875 21.31640625 6.6328125 C16.89279882 9.24371065 11.94556808 8.81888806 7 8 C4.12908558 6.43273954 1.94228784 4.63987009 0 2 C0 1.34 0 0.68 0 0 Z " fill="#BDBEBE" transform="translate(504,92)"/>
	<path d="M0 0 C1.32 0.33 2.64 0.66 4 1 C3.67 1.66 3.34 2.32 3 3 C2.84876169 4.5195764 2.75118307 6.04472502 2.68359375 7.5703125 C2.64169922 8.46621094 2.59980469 9.36210938 2.55664062 10.28515625 C2.51732422 11.22230469 2.47800781 12.15945312 2.4375 13.125 C2.39431641 14.06988281 2.35113281 15.01476562 2.30664062 15.98828125 C2.20040928 18.32537092 2.09836824 20.6625683 2 23 C0.68 23.33 -0.64 23.66 -2 24 C-1.34 23.67 -0.68 23.34 0 23 C0 15.41 0 7.82 0 0 Z " fill="#C1C2C2" transform="translate(571,76)"/>
	<path d="M0 0 C1.32 0 2.64 0 4 0 C4.38063221 2.3260857 4.71269945 4.66055264 5 7 C4 8 4 8 0.40234375 8.09765625 C-1.08596867 8.0909822 -2.57426432 8.07902183 -4.0625 8.0625 C-5.20041992 8.05573242 -5.20041992 8.05573242 -6.36132812 8.04882812 C-8.24091871 8.0370068 -10.12046899 8.01907078 -12 8 C-12 8.66 -12 9.32 -12 10 C-13.32 9.67 -14.64 9.34 -16 9 C-10.33778322 5.38247261 -4.59767367 5.30959957 2 5 C2 4.01 2 3.02 2 2 C1.34 1.34 0.68 0.68 0 0 Z " fill="#4C5354" transform="translate(168,74)"/>
	<path d="M0 0 C2.125 0.375 2.125 0.375 4 1 C3.01 1 2.02 1 1 1 C0.67 8.59 0.34 16.18 0 24 C-0.66 24 -1.32 24 -2 24 C-2.05787784 20.37506666 -2.0935542 16.75025143 -2.125 13.125 C-2.14175781 12.09246094 -2.15851563 11.05992188 -2.17578125 9.99609375 C-2.18222656 9.00996094 -2.18867188 8.02382812 -2.1953125 7.0078125 C-2.20578613 6.09660645 -2.21625977 5.18540039 -2.22705078 4.24658203 C-2 2 -2 2 0 0 Z " fill="#515659" transform="translate(422,75)"/>
	<path d="M0 0 C0.66 0.99 1.32 1.98 2 3 C1.32453125 3.04898438 0.6490625 3.09796875 -0.046875 3.1484375 C-0.93890625 3.22320312 -1.8309375 3.29796875 -2.75 3.375 C-3.63171875 3.44460937 -4.5134375 3.51421875 -5.421875 3.5859375 C-8.00846629 4.00135974 -9.70358583 4.7934095 -12 6 C-14.75 6.125 -14.75 6.125 -17 6 C-17.33 5.01 -17.66 4.02 -18 3 C-16 3 -14 3 -12 3 C-12 2.34 -12 1.68 -12 1 C-7.97542684 -0.34152439 -4.1944205 -0.27060777 0 0 Z " fill="#8D9192" transform="translate(278,65)"/>
	<path d="M0 0 C2.36092149 2.36092149 2.31949234 2.96250484 2.375 6.1875 C2.27028777 11.17341294 0.9236219 13.9904614 -2 18 C-2.99 18.33 -3.98 18.66 -5 19 C-5 18.34 -5 17.68 -5 17 C-4.34 17 -3.68 17 -3 17 C-3 16.34 -3 15.68 -3 15 C-3.598125 15.350625 -4.19625 15.70125 -4.8125 16.0625 C-7 17 -7 17 -10 16 C-7.66666667 13.66666667 -5.33333333 11.33333333 -3 9 C-3 10.32 -3 11.64 -3 13 C-2.34 13.33 -1.68 13.66 -1 14 C-0.67 9.38 -0.34 4.76 0 0 Z " fill="#C1C1C1" transform="translate(560,78)"/>
	<path d="M0 0 C0.99 0.33 1.98 0.66 3 1 C5.05893621 1.22325814 7.12233653 1.40705759 9.1875 1.5625 C10.27417969 1.64628906 11.36085938 1.73007813 12.48046875 1.81640625 C13.72763672 1.90728516 13.72763672 1.90728516 15 2 C15 2.66 15 3.32 15 4 C11.877998 6.08133467 11.06733011 6.2737822 7.5 6.25 C6.33984375 6.25773437 6.33984375 6.25773437 5.15625 6.265625 C3 6 3 6 0 4 C0.66 3.67 1.32 3.34 2 3 C1.34 2.67 0.68 2.34 0 2 C0 1.34 0 0.68 0 0 Z " fill="#A4A6A5" transform="translate(510,93)"/>
	<path d="M0 0 C0.33 0.99 0.66 1.98 1 3 C3.00016466 4.20882096 3.00016466 4.20882096 5 5 C4.01 5.33 3.02 5.66 2 6 C2 5.34 2 4.68 2 4 C-4.435 4.495 -4.435 4.495 -11 5 C-9.07089686 -0.78730941 -5.38986894 -0.20339128 0 0 Z " fill="#5E6566" transform="translate(93,73)"/>
	<path d="M0 0 C0.33 0 0.66 0 1 0 C1 4.95 1 9.9 1 15 C5.58519677 13.3428459 5.58519677 13.3428459 7.875 11.8125 C11.11661435 10.57305922 13.68096352 11.24852004 17 12 C17.33 12.66 17.66 13.32 18 14 C17.21753906 14.06058594 16.43507813 14.12117188 15.62890625 14.18359375 C14.61699219 14.26738281 13.60507812 14.35117188 12.5625 14.4375 C11.55316406 14.51871094 10.54382813 14.59992188 9.50390625 14.68359375 C7.06359221 14.73211468 7.06359221 14.73211468 6 16 C4.02 16 2.04 16 0 16 C0 10.72 0 5.44 0 0 Z " fill="#92979A" transform="translate(421,53)"/>
	<path d="M0 0 C0.33 0 0.66 0 1 0 C1 5.28 1 10.56 1 16 C3.31 15.34 5.62 14.68 8 14 C11.23828125 13.69921875 11.23828125 13.69921875 14.3125 13.6875 C15.85357422 13.66236328 15.85357422 13.66236328 17.42578125 13.63671875 C18.70001953 13.81654297 18.70001953 13.81654297 20 14 C20.99 15.485 20.99 15.485 22 17 C21.319375 16.835 20.63875 16.67 19.9375 16.5 C15.27626069 15.70659756 11.32941796 15.55686068 6.8125 17.0625 C4 18 4 18 0 17 C0 11.39 0 5.78 0 0 Z " fill="#3F474B" transform="translate(420,53)"/>
	<path d="M0 0 C0.33 0.99 0.66 1.98 1 3 C-2.693827 6.90490283 -7.20962079 11.6604452 -12.875 12.16796875 C-13.926875 12.17763672 -13.926875 12.17763672 -15 12.1875 C-16.051875 12.20876953 -16.051875 12.20876953 -17.125 12.23046875 C-19 12 -19 12 -21 10 C-20.11957031 9.87882812 -19.23914063 9.75765625 -18.33203125 9.6328125 C-17.17058594 9.46523437 -16.00914062 9.29765625 -14.8125 9.125 C-13.66394531 8.96257812 -12.51539063 8.80015625 -11.33203125 8.6328125 C-8.27971166 8.05312226 -5.76728878 7.40122245 -3 6 C-1.70339566 3.50965614 -1.70339566 3.50965614 -1 1 C-0.67 0.67 -0.34 0.34 0 0 Z " fill="#AFB2B2" transform="translate(402,91)"/>
	<path d="M0 0 C0.33 0.66 0.66 1.32 1 2 C0.31292969 2.10957031 -0.37414062 2.21914062 -1.08203125 2.33203125 C-1.98308594 2.49058594 -2.88414062 2.64914063 -3.8125 2.8125 C-4.70582031 2.96332031 -5.59914063 3.11414063 -6.51953125 3.26953125 C-9.18321256 4.05395393 -10.25690322 4.88627799 -12 7 C-12 6.34 -12 5.68 -12 5 C-13.98 5 -15.96 5 -18 5 C-18 4.01 -18 3.02 -18 2 C-17.34 2 -16.68 2 -16 2 C-16 2.66 -16 3.32 -16 4 C-15.5153125 3.71125 -15.030625 3.4225 -14.53125 3.125 C-9.37898353 0.27143703 -5.87035937 -0.41931138 0 0 Z " fill="#B7B9B9" transform="translate(604,69)"/>
	<path d="M0 0 C0.99 0 1.98 0 3 0 C3 0.66 3 1.32 3 2 C2.34 2 1.68 2 1 2 C1 2.66 1 3.32 1 4 C-3.8715372 6.29248809 -7.74024015 6.78600343 -12.875 5 C-13.57625 4.67 -14.2775 4.34 -15 4 C-15 3.67 -15 3.34 -15 3 C-14.00097656 2.86722656 -13.00195312 2.73445313 -11.97265625 2.59765625 C-10.68230469 2.42105469 -9.39195312 2.24445313 -8.0625 2.0625 C-6.77472656 1.88847656 -5.48695313 1.71445313 -4.16015625 1.53515625 C-1.14533687 1.33837577 -1.14533687 1.33837577 0 0 Z " fill="#979696" transform="translate(554,93)"/>
	<path d="M0 0 C2.475 0.99 2.475 0.99 5 2 C4.34 2.66 3.68 3.32 3 4 C2.34 3.67 1.68 3.34 1 3 C0.67 11.91 0.34 20.82 0 30 C-0.33 30 -0.66 30 -1 30 C-1.22768266 26.31343081 -1.42864448 22.6258599 -1.625 18.9375 C-1.68945312 17.89916016 -1.75390625 16.86082031 -1.8203125 15.79101562 C-2.11274965 10.03365922 -2.01556322 5.42355751 0 0 Z " fill="#C6C6C7" transform="translate(569,69)"/>
	<path d="M0 0 C0.33 0.66 0.66 1.32 1 2 C1.66 2 2.32 2 3 2 C3.02703381 3.93742341 3.04641125 5.87495479 3.0625 7.8125 C3.07410156 8.89144531 3.08570313 9.97039062 3.09765625 11.08203125 C3 14 3 14 2 17 C1.34 17 0.68 17 0 17 C0 11.39 0 5.78 0 0 Z " fill="#494F50" transform="translate(327,75)"/>
	<path d="M0 0 C0.97592341 3.22281686 1.04557515 6.01997153 0.9375 9.375 C0.88587088 13.66021693 1.27508264 17.0111286 3 21 C2.34 21 1.68 21 1 21 C-2.72631981 15.41052028 -2.73077709 9.57699384 -2 3 C-1.34 2.01 -0.68 1.02 0 0 Z " fill="#B2B4B4" transform="translate(453,74)"/>
	<path d="M0 0 C0.99 0 1.98 0 3 0 C3 0.66 3 1.32 3 2 C3.66 2.33 4.32 2.66 5 3 C4.01 3 3.02 3 2 3 C2.02320313 3.91523437 2.04640625 4.83046875 2.0703125 5.7734375 C2.08835937 6.96195312 2.10640625 8.15046875 2.125 9.375 C2.14820313 10.55835937 2.17140625 11.74171875 2.1953125 12.9609375 C2 16 2 16 0 18 C0 12.06 0 6.12 0 0 Z " fill="#BDC0C0" transform="translate(376,98)"/>
	<path d="M0 0 C0 0.33 0 0.66 0 1 C-0.7734375 0.99097656 -1.546875 0.98195313 -2.34375 0.97265625 C-9.63856797 1.18030577 -13.50171054 2.28119946 -18.671875 7.50390625 C-19.11015625 7.99761719 -19.5484375 8.49132812 -20 9 C-20.33 8.01 -20.66 7.02 -21 6 C-14.07669782 -0.69798761 -9.38433964 -1.45619063 0 0 Z " fill="#ACAEAE" transform="translate(94,66)"/>
	<path d="M0 0 C1.4540625 0.0309375 1.4540625 0.0309375 2.9375 0.0625 C2.9375 1.7125 2.9375 3.3625 2.9375 5.0625 C1.9475 5.3925 0.9575 5.7225 -0.0625 6.0625 C-0.0625 5.0725 -0.0625 4.0825 -0.0625 3.0625 C-4.6825 3.0625 -9.3025 3.0625 -14.0625 3.0625 C-14.0625 2.7325 -14.0625 2.4025 -14.0625 2.0625 C-13.35222656 2.00191406 -12.64195312 1.94132812 -11.91015625 1.87890625 C-10.53150391 1.75322266 -10.53150391 1.75322266 -9.125 1.625 C-8.20847656 1.54378906 -7.29195313 1.46257812 -6.34765625 1.37890625 C-3.25443451 0.95061401 -3.40544167 0.06949881 0 0 Z " fill="#4F5655" transform="translate(482.0625,90.9375)"/>
	<path d="M0 0 C1.32 0.66 2.64 1.32 4 2 C3.67 3.65 3.34 5.3 3 7 C2.01 7.33 1.02 7.66 0 8 C-0.99 7.01 -1.98 6.02 -3 5 C-1.125 1.125 -1.125 1.125 0 0 Z " fill="#AEB1B0" transform="translate(496,93)"/>
	<path d="M0 0 C6.4785123 -0.36670824 6.4785123 -0.36670824 8.7109375 1.203125 C10.40578254 3.56563626 10.36891015 5.05190406 10.3125 7.9375 C10.30863281 8.79214844 10.30476563 9.64679688 10.30078125 10.52734375 C9.98780141 13.10028192 9.29573378 14.77505475 8 17 C6.35 17 4.7 17 3 17 C3.825 16.319375 4.65 15.63875 5.5 14.9375 C8.32750884 12.17692181 8.32750884 12.17692181 8.375 8.375 C8.12077024 5.01309557 8.12077024 5.01309557 7 2 C4.69 1.67 2.38 1.34 0 1 C0 0.67 0 0.34 0 0 Z " fill="#BEBFC0" transform="translate(382,75)"/>
	<path d="M0 0 C0.33 0.99 0.66 1.98 1 3 C-2.05263664 3.98120464 -3.94736336 3.98120464 -7 3 C-7 2.34 -7 1.68 -7 1 C-8.32 0.67 -9.64 0.34 -11 0 C-7.0888992 -2.81599257 -4.26709995 -1.69073772 0 0 Z " fill="#242A2E" transform="translate(481,70)"/>
	<path d="M0 0 C2.19510603 0.25361783 4.38228739 0.57765908 6.5625 0.9375 C8.35880859 1.22947266 8.35880859 1.22947266 10.19140625 1.52734375 C11.11824219 1.68332031 12.04507813 1.83929688 13 2 C10.04370335 3.72890563 8.36803369 4.19909665 5 3.625 C-0.6701892 2.82038217 -6.28405928 2.91295522 -12 3 C-12 2.67 -12 2.34 -12 2 C-11.21753906 1.93941406 -10.43507812 1.87882812 -9.62890625 1.81640625 C-8.61699219 1.73261719 -7.60507813 1.64882812 -6.5625 1.5625 C-5.55316406 1.48128906 -4.54382813 1.40007812 -3.50390625 1.31640625 C-1.06359221 1.26788532 -1.06359221 1.26788532 0 0 Z " fill="#A7AAAB" transform="translate(169,98)"/>
	<path d="M0 0 C0.66 0 1.32 0 2 0 C2 4.95 2 9.9 2 15 C-1.38740662 10.48345784 -1.38740662 10.48345784 -1.25 6.375 C-1.23453125 5.59898438 -1.2190625 4.82296875 -1.203125 4.0234375 C-1 2 -1 2 0 0 Z " fill="#8E8E8E" transform="translate(533,77)"/>
	<path d="M0 0 C0.98613281 0.00322266 1.97226563 0.00644531 2.98828125 0.00976562 C4.02082031 0.01814453 5.05335937 0.02652344 6.1171875 0.03515625 C7.67759766 0.04192383 7.67759766 0.04192383 9.26953125 0.04882812 C11.84380712 0.06063673 14.41796896 0.0771055 16.9921875 0.09765625 C16.9921875 0.42765625 16.9921875 0.75765625 16.9921875 1.09765625 C15.06052734 1.18853516 15.06052734 1.18853516 13.08984375 1.28125 C11.41144591 1.36563872 9.73306114 1.45028755 8.0546875 1.53515625 C6.77948242 1.59413086 6.77948242 1.59413086 5.47851562 1.65429688 C4.66962891 1.69619141 3.86074219 1.73808594 3.02734375 1.78125 C1.90404663 1.83623657 1.90404663 1.83623657 0.75805664 1.89233398 C-1.03242576 1.91536688 -1.03242576 1.91536688 -2.0078125 3.09765625 C-4.67840101 3.23880786 -7.33213488 3.14012732 -10.0078125 3.09765625 C-6.17599925 0.54311408 -4.53424968 -0.02605891 0 0 Z " fill="#585E60" transform="translate(86.0078125,44.90234375)"/>
	<path d="M0 0 C0.33 0 0.66 0 1 0 C1.05459773 1.56210161 1.09306101 3.12477089 1.125 4.6875 C1.14820313 5.55761719 1.17140625 6.42773438 1.1953125 7.32421875 C1 10 1 10 -1 15 C-4.96 15 -8.92 15 -13 15 C-13.33 14.01 -13.66 13.02 -14 12 C-13.01 12.33 -12.02 12.66 -11 13 C-9.43881572 13.06740865 -7.8749748 13.08514456 -6.3125 13.0625 C-4.889375 13.041875 -3.46625 13.02125 -2 13 C-1.34 8.71 -0.68 4.42 0 0 Z " fill="#585E61" transform="translate(392,79)"/>
	<path d="M0 0 C0.5625 1.9375 0.5625 1.9375 1 4 C0.67 4.33 0.34 4.66 0 5 C-0.39243917 10.78847779 0.16967513 13.83158068 3 19 C2.67 19.66 2.34 20.32 2 21 C1.34 19.68 0.68 18.36 0 17 C-0.66 17 -1.32 17 -2 17 C-2.05383848 14.54137599 -2.09359038 12.0839245 -2.125 9.625 C-2.14175781 8.92632812 -2.15851563 8.22765625 -2.17578125 7.5078125 C-2.19344267 5.67102514 -2.10303261 3.83398037 -2 2 C-1.34 1.34 -0.68 0.68 0 0 Z " fill="#A6A9AA" transform="translate(72,75)"/>
	<path d="M0 0 C0.97710937 -0.01417969 1.95421875 -0.02835937 2.9609375 -0.04296875 C5.625 0.1875 5.625 0.1875 8.625 2.1875 C8.625 2.8475 8.625 3.5075 8.625 4.1875 C10.275 3.5275 11.925 2.8675 13.625 2.1875 C13.295 3.1775 12.965 4.1675 12.625 5.1875 C10.975 5.1875 9.325 5.1875 7.625 5.1875 C7.625 4.5275 7.625 3.8675 7.625 3.1875 C6.94953125 3.12691406 6.2740625 3.06632812 5.578125 3.00390625 C4.24007812 2.87822266 4.24007812 2.87822266 2.875 2.75 C1.99328125 2.66878906 1.1115625 2.58757812 0.203125 2.50390625 C-2.06850452 2.22511535 -4.17351823 1.79959423 -6.375 1.1875 C-4.64526886 -0.54223114 -2.34983037 0.01541883 0 0 Z " fill="#525958" transform="translate(231.375,66.8125)"/>
	<path d="M0 0 C2.03833424 1.2739589 4.03852126 2.61061923 6 4 C6 4.66 6 5.32 6 6 C7.32 6 8.64 6 10 6 C10 6.66 10 7.32 10 8 C10.99 8.33 11.98 8.66 13 9 C9.87501235 9.45731527 7.75985004 9.47775003 5.04296875 7.76953125 C3.20124623 6.25039149 1.51760381 4.84537031 0 3 C0 2.01 0 1.02 0 0 Z " fill="#989A9C" transform="translate(294,91)"/>
	<path d="M0 0 C0.33 0 0.66 0 1 0 C1.25 2.8125 1.25 2.8125 1 6 C-0.625 7.875 -0.625 7.875 -3 9 C-6.25 9.1875 -6.25 9.1875 -9 9 C-9 8.01 -9 7.02 -9 6 C-5.535 5.505 -5.535 5.505 -2 5 C-1.34 3.35 -0.68 1.7 0 0 Z " fill="#979B9C" transform="translate(170,86)"/>
	<path d="M0 0 C0.99 0.99 1.98 1.98 3 3 C-1.62 3 -6.24 3 -11 3 C-6.5889269 -0.30830483 -5.30317127 -0.57852777 0 0 Z " fill="#8C8C8C" transform="translate(521,70)"/>
	<path d="M0 0 C4.92127034 -0.16682272 8.50343896 -0.24828052 13 2 C12.67 2.99 12.34 3.98 12 5 C10.35 5 8.7 5 7 5 C7 4.34 7 3.68 7 3 C4.69 2.34 2.38 1.68 0 1 C0 0.67 0 0.34 0 0 Z " fill="#535758" transform="translate(212,67)"/>
	<path d="M0 0 C3.36179774 1.44077046 5.59156268 3.24750021 8 6 C8 6.66 8 7.32 8 8 C8.66 8 9.32 8 10 8 C10.66 9.65 11.32 11.3 12 13 C9.6875 12.375 9.6875 12.375 7 11 C5.4375 8.1875 5.4375 8.1875 4 5 C2.70758949 3.30140333 1.38509525 1.62390477 0 0 Z " fill="#A9ADAF" transform="translate(116,51)"/>
	<path d="M0 0 C0.99 0 1.98 0 3 0 C3.29296875 5.95703125 3.29296875 5.95703125 3 8 C2.01 8.99 1.02 9.98 0 11 C0 7.37 0 3.74 0 0 Z " fill="#4C5355" transform="translate(319,78)"/>
	<path d="M0 0 C0 0.99 0 1.98 0 3 C-3.63 3 -7.26 3 -11 3 C-8.89427904 -1.21144191 -4.11694326 -0.07767817 0 0 Z " fill="#1B2426" transform="translate(168,96)"/>
	<path d="M0 0 C5.28 0 10.56 0 16 0 C16.33 1.32 16.66 2.64 17 4 C16.05125 3.690625 15.1025 3.38125 14.125 3.0625 C9.49061575 1.72071729 4.79447959 1.36657993 0 1 C0 0.67 0 0.34 0 0 Z " fill="#838383" transform="translate(539,72)"/>
	<path d="M0 0 C0.33 1.32 0.66 2.64 1 4 C-2.3 3.67 -5.6 3.34 -9 3 C-9.33 3.66 -9.66 4.32 -10 5 C-10 4.01 -10 3.02 -10 2 C-6.5980513 -0.09350689 -3.94727588 -0.17942163 0 0 Z " fill="#595C5E" transform="translate(232,73)"/>
	<path d="M0 0 C7.38461538 -0.36923077 7.38461538 -0.36923077 10.5 1.5 C10.995 1.995 11.49 2.49 12 3 C7.48281619 4.36884358 4.41225737 3.47075246 0 2 C0 1.34 0 0.68 0 0 Z " fill="#494F50" transform="translate(367,67)"/>
	<path d="M0 0 C-3 1 -3 1 -6.25 0.9375 C-10.30658359 1.00510973 -13.17363387 1.75057432 -17 3 C-17 2.34 -17 1.68 -17 1 C-10.60146478 -1.39462284 -6.43534142 -2.6580758 0 0 Z " fill="#BEBFBF" transform="translate(524,70)"/>
	<path d="M0 0 C4.82262646 0.43842059 6.82034501 1.3817719 10 5 C10.99 5.66 11.98 6.32 13 7 C8.14036821 6.39254603 4.2594482 4.27241033 0 2 C0 1.34 0 0.68 0 0 Z " fill="#A9ABAC" transform="translate(67,115)"/>
	<path d="M0 0 C3.63 0.33 7.26 0.66 11 1 C11 1.33 11 1.66 11 2 C2.57142857 4.28571429 2.57142857 4.28571429 -2 4 C-1.34 2.68 -0.68 1.36 0 0 Z " fill="#A4A5A6" transform="translate(538,72)"/>
	<path d="M0 0 C0 0.66 0 1.32 0 2 C-6.625 5.875 -6.625 5.875 -10 7 C-10 6.01 -10 5.02 -10 4 C-6.95017933 1.16802366 -4.14156268 0 0 0 Z " fill="#8A8F90" transform="translate(75,48)"/>
	<path d="M0 0 C1.875 -0.328125 1.875 -0.328125 4 -0.25 C4.70125 -0.23453125 5.4025 -0.2190625 6.125 -0.203125 C8 0 8 0 10 1 C9.67 2.32 9.34 3.64 9 5 C8.484375 4.484375 7.96875 3.96875 7.4375 3.4375 C4.0289729 1.42734299 1.76893143 2.20272604 -2 3 C-1.34 2.01 -0.68 1.02 0 0 Z " fill="#B8B7BA" transform="translate(576,73)"/>
	<path d="M0 0 C1.32 0.33 2.64 0.66 4 1 C2 3 2 3 -1.4765625 3.1953125 C-2.85950968 3.18201493 -4.24238654 3.15816232 -5.625 3.125 C-6.33140625 3.11597656 -7.0378125 3.10695313 -7.765625 3.09765625 C-9.51056098 3.07407603 -11.25532295 3.03820461 -13 3 C-13 2.67 -13 2.34 -13 2 C-8.71 2 -4.42 2 0 2 C0 1.34 0 0.68 0 0 Z " fill="#585B5B" transform="translate(478,97)"/>
	<path d="M0 0 C0.33 0.66 0.66 1.32 1 2 C-1.31 1.67 -3.62 1.34 -6 1 C-6.66 2.32 -7.32 3.64 -8 5 C-8.99 5 -9.98 5 -11 5 C-9.07089686 -0.78730941 -5.38986894 -0.20339128 0 0 Z " fill="#A9AEAE" transform="translate(93,73)"/>
	<path d="M0 0 C2.64 0 5.28 0 8 0 C8.33 0.99 8.66 1.98 9 3 C9.99 3 10.98 3 12 3 C11.67 3.99 11.34 4.98 11 6 C10.01 5.67 9.02 5.34 8 5 C8 4.01 8 3.02 8 2 C5.36 1.67 2.72 1.34 0 1 C0 0.67 0 0.34 0 0 Z " fill="#515657" transform="translate(338,67)"/>
	<path d="M0 0 C0.99 0.495 0.99 0.495 2 1 C2 1.66 2 2.32 2 3 C2.99 3 3.98 3 5 3 C5 3.66 5 4.32 5 5 C6.32 5.66 7.64 6.32 9 7 C5.64708882 7.37254569 4.3961577 7.31050198 1.6875 5.1875 C0 3 0 3 0 0 Z " fill="#878986" transform="translate(505,90)"/>
	<path d="M0 0 C2.69797258 1.99415365 3.02681526 3.12513789 3.75 6.5 C4 10 4 10 3 13 C2.34 12.67 1.68 12.34 1 12 C1.020625 10.948125 1.04125 9.89625 1.0625 8.8125 C1.01103198 5.67295096 0.73482813 3.03116604 0 0 Z " fill="#B4B6B9" transform="translate(486,73)"/>
	<path d="M0 0 C1.32 0.33 2.64 0.66 4 1 C2 3 2 3 -1.0390625 3.1953125 C-2.22242188 3.17210938 -3.40578125 3.14890625 -4.625 3.125 C-5.81351562 3.10695313 -7.00203125 3.08890625 -8.2265625 3.0703125 C-9.14179688 3.04710938 -10.05703125 3.02390625 -11 3 C-11 2.67 -11 2.34 -11 2 C-7.37 2 -3.74 2 0 2 C0 1.34 0 0.68 0 0 Z " fill="#515556" transform="translate(318,97)"/>
	<path d="M0 0 C0.66 0.33 1.32 0.66 2 1 C1.319375 1.5878125 1.319375 1.5878125 0.625 2.1875 C-1.27269457 4.30415932 -1.9638919 6.37519282 -3 9 C-3.99 9.495 -3.99 9.495 -5 10 C-4.49701212 5.59885603 -2.91227269 3.28804981 0 0 Z " fill="#4E5556" transform="translate(64,55)"/>
	<path d="M0 0 C1.32 0.33 2.64 0.66 4 1 C2.71086513 1.67154933 1.41859796 2.33708859 0.125 3 C-0.59429687 3.37125 -1.31359375 3.7425 -2.0546875 4.125 C-4 5 -4 5 -6 5 C-5.67 4.01 -5.34 3.02 -5 2 C-3.35 2 -1.7 2 0 2 C0 1.34 0 0.68 0 0 Z " fill="#474E4F" transform="translate(109,116)"/>
	<path d="M0 0 C-2.38573379 1.89213369 -4.07175348 3.02391783 -7 4 C-7.66 4.66 -8.32 5.32 -9 6 C-9 4.68 -9 3.36 -9 2 C-5.5647952 -0.29013653 -4.014669 -0.17842973 0 0 Z " fill="#4F5457" transform="translate(356,75)"/>
	<path d="M0 0 C1.98 0 3.96 0 6 0 C5.67 1.32 5.34 2.64 5 4 C4.67 3.34 4.34 2.68 4 2 C3.34 2 2.68 2 2 2 C2 2.66 2 3.32 2 4 C1.34 4 0.68 4 0 4 C0 2.68 0 1.36 0 0 Z " fill="#959596" transform="translate(586,74)"/>
	<path d="M0 0 C3.63 0 7.26 0 11 0 C10.67 1.32 10.34 2.64 10 4 C9.01 3.34 8.02 2.68 7 2 C4.66800612 1.92094936 2.33167378 1.91201231 0 2 C0 1.34 0 0.68 0 0 Z " fill="#4E5257" transform="translate(380,73)"/>
	<path d="M0 0 C2.64 0 5.28 0 8 0 C8 0.66 8 1.32 8 2 C5.69 2.66 3.38 3.32 1 4 C0.67 2.68 0.34 1.36 0 0 Z " fill="#363C3E" transform="translate(193,68)"/>
	<path d="M0 0 C0.75 1.75 0.75 1.75 1 4 C-0.9375 6.25 -0.9375 6.25 -3 8 C-3.33 7.01 -3.66 6.02 -4 5 C-3.34 5 -2.68 5 -2 5 C-1.7834375 4.0409375 -1.7834375 4.0409375 -1.5625 3.0625 C-1 1 -1 1 0 0 Z " fill="#474D4E" transform="translate(126,99)"/>
	<path d="M0 0 C2.31 0 4.62 0 7 0 C7.33 0.66 7.66 1.32 8 2 C4.94152152 2.54372951 2.11227195 3 -1 3 C-0.67 2.01 -0.34 1.02 0 0 Z " fill="#9B9B9F" transform="translate(466,73)"/>
	<path d="M0 0 C3.3 0 6.6 0 10 0 C10 0.33 10 0.66 10 1 C6.7 1 3.4 1 0 1 C0 0.67 0 0.34 0 0 Z " fill="#C6C7C8" transform="translate(465,78)"/>
	<path d="" fill="#C7C7C8" transform="translate(0,0)"/>
	<path d="" fill="#D3D2D5" transform="translate(0,0)"/>
</svg>
